<svg xmlns="http://www.w3.org/2000/svg" version="1.0" viewBox="0 0 600 600"><path d="M271.4 87.5c-1.7.8-3.6 2.1-4.3 2.9-2.1 2.6-12.6 2.1-17.6-.7-4.4-2.5-11.5-3.5-11.5-1.6 0 .8-1.2.9-3.7.4-5.5-1-9.2-1.2-8.7-.4.8 1.3-5.5 3.1-8.8 2.4-2.4-.5-2.9-.4-1.8.4 1.3.9 1.2 1.1-.4 1.1-1.1 0-2.9.9-4.1 2-1.2 1.1-5.6 3-9.8 4.3-5.3 1.6-7.4 2.6-6.7 3.3 1.2 1.2-9.3 9-10.8 8-.4-.3-2.6.6-4.8 1.9-2.1 1.4-3.6 2.5-3.2 2.5 1.8.1-7.2 7.4-11.1 9-2.5 1.1-4 1.9-3.2 1.9 1.1.1 1.1.5-.2 1.9-1 1-1.7 2.2-1.7 2.7s-.7 1.7-1.7 2.7c-.9 1-1.2 1.8-.6 1.8.5 0 1 .7 1 1.5 0 1.6-10.2 12.3-16.2 17-5.4 4.2-6.6 7.7-5.6 16.4.4 4.2.3 9.6-.3 12.8-.7 3.8-.6 6 .1 7.2 2.3 3.7 2.4 9.5.4 15.6-1.1 3.3-2.1 6.3-2.1 6.6 0 1 3.4.7 4.8-.4 1.9-1.5 2.4-.3 1.2 2.9-.7 1.8-.8 3-.2 3.2.6.2.8 1.1.5 2.1-.3 1.1.7 3.2 2.5 5.2 2.7 3.2 3.1 4.5 5.1 19.7 1.2 8.9 2.7 17.9 3.4 20 .7 2.1 4.4 8.9 8.1 15.1 7.9 13.3 10.2 20.7 11.7 39.1 2.5 30.2 8.6 44.1 32.8 74 4.2 5.2 11.7 13.7 16.6 19 5 5.2 9.9 10.8 10.9 12.5 4.1 6.6 10.2 12.9 14.2 14.6 2.3 1.1 8 2.2 13 2.5 6.3.5 9.3 1.2 10.1 2.3 2.1 2.7 10.9 20 15.2 30l4 9.3-1.8 3.7c-4.2 8.2-6.2 19.5-4.5 25.8 1.3 4.7 2 2.1 1-3.7-.9-5.5-.7-6.6 2.3-15.2 1.8-5.1 3.3-10.5 3.3-12.1.1-1.5.2-2.7.2-2.7.1 0 1.9.9 4.1 2 8.9 4.5 20.1 1.4 29.8-8.3 6.7-6.8 10.1-13.6 12.2-25.2 3.3-17.4 10.3-34.8 19.1-47.1 2.4-3.4 8.8-10.3 14.4-15.4 8-7.4 10.2-10.1 11.1-13.4 1.2-4.2.7-40.7-.7-53l-.7-6 2.8 2.2c1.6 1.3 4.8 2.8 7.2 3.4 5.3 1.3 6 2.6 9.8 19.4 4.5 19.8 5.4 22.3 13.6 38.9 9.6 19.5 11.6 22.8 14.3 24.5 1.9 1.1 1.9 1-.3-1.3-1.2-1.4-2-3-1.6-3.6.3-.6-1.3-5.1-3.8-9.9-3.4-6.9-4.3-9.6-3.9-12.5.3-2.4-.4-5.6-1.9-9.1-2-5-2.1-5.9-.9-9.5 1.2-3.6 1.1-4.2-.8-6.6-1.5-1.8-1.9-3.5-1.6-5.4.4-1.8-.2-4-1.6-6.4-1.9-3.1-2.1-4.5-1.5-10 .5-4.3.3-6.7-.4-7.1-.7-.5-.3-2.3 1.4-5.6 1.4-2.7 2.5-5.9 2.5-7 0-1.1 1.1-4.6 2.4-7.8 4.2-10 6.9-25.3 6.4-35.6-.6-10.4-2.4-15.4-8.8-24.1-3.8-5.1-4.1-6-3.5-10 .3-2.5.1-5.2-.4-6.2s-1.4-8.6-1.9-16.8c-.9-12.2-.8-15.5.3-17.8 1.1-2.3 1.1-2.7-.1-2.7-1 0-1.4-1.2-1.4-3.9 0-2.2-.4-4.2-.9-4.5-.5-.3-1.1-1.5-1.4-2.6-.3-1.1-.1-1.8.3-1.5.4.3.6-.4.3-1.5s-.9-2.3-1.4-2.6c-.5-.3-.9-1.4-.9-2.5 0-1-.5-1.9-1-1.9-.6 0-1.6-1.2-2.2-2.8-.7-1.5-1.9-3.6-2.7-4.6-1.3-1.5-1.3-2-.3-2.3 1-.4.8-.9-.5-1.9-1.6-1.2-1.6-1.5-.3-2.4 1-.6 1.1-1 .3-1-.7 0-1-.6-.7-1.4.3-.9-.3-1.7-1.5-2.1-1.2-.3-2-.9-1.7-1.3.7-1.4-1.4-5.2-2.9-5.2-.8 0-1.5-.7-1.5-1.5v-2c0-.2-1.2-1.6-2.6-3-1.4-1.4-2.2-3-1.9-3.5.3-.6.3-1-.2-1-.4 0-1.6-1.4-2.5-3-.9-1.7-2.4-3-3.3-3-.9 0-1.5-.9-1.5-2.4 0-2.4-2.3-4.1-4.1-3-.5.3-.9-.2-.9-1s-1.2-2.4-2.7-3.6c-1.6-1.2-2.7-2.4-2.5-2.8.7-1.2-6.8-3.9-9.5-3.5-2.1.3-2.4.2-1.4-.5 1.1-.8.5-1.1-2.4-1.4-3.2-.2-4-.7-4.5-2.8-.5-2.3-1-2.5-6.8-2.6-3.4-.1-6.8-.6-7.5-1.2-.8-.7-1.7-.9-2-.5-.4.3-.7.1-.7-.6 0-.8-.7-1.1-1.5-.7-1.3.4-1.3.2-.5-1.4 1-1.8.9-1.9-2.6-.4-2.1.9-4.6 1.3-5.8 1-1.1-.3-2.8.2-3.8 1.1-1.4 1.2-1.8 1.3-1.8.3 0-1.1-.3-1.1-1.2-.2-.9.9-1.7.5-3.5-1.6l-2.4-2.7-2.4 2.8c-1.4 1.5-2.5 2.5-2.5 2.1 0-.3-.6-.2-1.2.3-1.5 1.2-5.8 1.1-7.5 0-1-.6-.9-1.3.2-3.1 1.9-2.8.8-4-1.9-2.2-3.1 1.9-8.1 1.6-8-.7.2-2-.9-2.2-3.8-.6-1.5.8-1.9.8-1.4 0 .4-.6.2-1.1-.5-1.1-.8 0-.8-.4.1-1.5 1.6-1.9-.2-1.9-4.6 0zm20 62.9c-.7 1.8 2.8 2.4 7.6 1.4 3.2-.7 3.8-.5 6.6 2.8 1.8 1.9 3.4 3 3.6 2.3.2-.7.8-.6 1.7.5 1.2 1.4 1.2 1.6-.3 1-2.3-.9-2 .5.6 3.3 1.9 2 2 2.3.4 1.7-1.6-.6-1.7-.5-.5 1.4.7 1.1 1.7 1.8 2.3 1.5.5-.3.6-.1.2.5-.4.6.1 2.4 1.1 3.9 1.2 1.8 1.3 2.4.4 1.9-1.6-1-.8.7 1.8 3.7.8 1 1.6 2.8 1.7 4 .2 3.5 1.6 7.1 3.3 8.4 1.4 1.2 1.4 1.2-.4.6-1.6-.5-1.4 0 1 2.7l3 3.3-3.2-2.1c-3.7-2.6-4.4-2.7-3.6-.5.5 1.2.2 1.5-1 1-1.8-.7-2.4.8-.7 1.8.6.4.8 1.1.4 1.6-.3.5.2 2.1 1 3.4 1.7 2.6.9 3.4-1.2 1.3-.7-.7-1.2-.8-1.2-.2 0 .6 1.6 2.5 3.5 4.4 1.9 1.8 3.3 3.6 3 3.8-.2.3 1.2 1.8 3.3 3.4 2 1.6 4.3 4.2 5 5.6 1.2 2.5 1.2 2.6-.2.8-1.8-2.3-2.1-1.4-.5 1.5.5 1.1 1.4 1.7 1.9 1.4.6-.3.7 0 .4.8-.3.8 0 1.8.5 2.2.6.3.9 1.1.6 1.6-.4.5.2 2.1 1.3 3.7 2.1 3.1 2.1 3.1 9.6 31.4 5.8 21.7 8.1 27.6 11.8 30.2 2.9 2 8.7 2 11.6 0 2.6-1.8 3-7.5 1.1-15-1.6-6.2 0-13.3 5.5-25 2.5-5.2 4.7-9.4 4.9-9.4.3 0-.3 2.8-1.4 6.2-4 13.4-4.2 19.8-1.9 64 1.2 22.7 2 44.7 1.8 48.9-.7 12.2-2.6 14.2-27.3 29.4l-11 6.8 3.9-4.3c5.7-6.4 7.7-11.7 8.8-24.4 2.1-23.9-.4-37.7-9.6-51.5l-4.7-7.1-6.7 4.7c-3.7 2.6-9.1 6.5-12 8.6l-5.4 3.9-2.6-2.4c-2.1-1.8-2.3-1.9-.9-.2 1.8 2.2 2.3 4.4.9 4.4-1.9 0-13.4 11.5-15.4 15.4-1.9 3.5-2.1 5.6-2 15.3.2 13.5-1.1 17.6-7.4 23.2-8.9 7.8-29.9 16.1-40.8 16.1-6.3 0-15.3-2.7-20-5.9-2.3-1.6-6.2-5.5-8.6-8.6-8.9-11.5-16.8-16.3-22.5-13.7-2.3 1.1-2.7.7-6.9-6.1-8.3-13.4-12.1-25.8-13.6-44.1-1.1-13.4-3.5-24.8-8.1-38.3-1.8-5-2.9-9.8-2.6-10.6.9-2.5 7.2-6.7 13.1-8.7 6.9-2.5 17.5-2.6 24-.4 5.9 2 7.7.9 5.5-3.3-1.4-2.6-6.9-6.5-9.8-7-.8-.1-2.6-.5-4-.9s-2.8-.7-3.1-.7c-10.1 1.5-18.2 4.2-22.9 7.7-4.1 3.1-4.4 1.9-6.3-28.4-1.5-23.7-1.4-28.6.6-30.5.9-.9 1.6-2 1.6-2.5 0-1.7 5.4-6 6.1-4.9.3.6 2-1.2 3.8-4 3.1-5.1 5.1-6.5 5.1-3.5 0 1.3.5 1.2 3-.6 1.7-1.2 3-1.9 3-1.5 0 .3.6.3 1.3-.2.6-.4 1.7-.8 2.4-.9.6-.1 2.9-1.5 5-3 3.5-2.6 3.6-2.7 1.8-.4l-2 2.4 3-2.2c1.7-1.2 4.4-3.2 6-4.4l3-2.2-2 2.3-2 2.3 3-1.3c1.7-.7 4.6-2.5 6.4-3.9 1.9-1.4 3.2-1.9 2.7-1.3-.4.7-.4 1.3-.1 1.3.8 0 6.7-4 7.5-5.1.3-.3 2-1.4 3.8-2.3l3.3-1.7-1.6 3c-1.6 3.3-.7 4.2 1.6 1.5 2.3-2.8 9.9-7.5 12.2-7.6 1.2-.1 3.1-.8 4.2-1.5 2.6-1.7 4.6-1.7 3.9.2-.8 2.1 1 1.9 3-.4 1.4-1.6 4.3-2.9 7.6-3.5.3-.1 1.1-.5 1.9-1 1.1-.7 1.3-.5.8.7-.8 2.2.1 2.2 2.6-.1 1.9-1.6 2-1.6.8.5-1.5 2.9-1.4 3.6.5 2.9 1.2-.4 1.5-.2 1.1.8-.6 1.6 2.1.5 11.6-4.5 3.7-2 4.8-1.5 2.5 1.1-.7.8-.3.6 1-.4 1.5-1.3 2.2-1.5 2.2-.6s.6.7 2-.5c1.2-1.1 2.8-2 3.7-2.1.8-.2 2-.7 2.6-1.3 1.5-1.5 1.7-1.4 1.1.3zM404 234.2c4.7 3.2 7.8 9.8 9 19.2.9 7 .7 9.3-1.6 20.5-1.4 6.9-3.4 14.6-4.5 17-1 2.4-1.9 5.6-1.9 7.1 0 3.4-5.2 13.8-8.1 16.2-3.9 3.3-13.1 1.6-17.2-3-3.5-3.9-5-36.2-2.3-50.2 2.7-14.3 7.2-24 12.5-27.4 3.8-2.3 10.2-2 14.1.6z"/><path d="M260.2 226.2c-2.4 1.1-5.4 2.1-6.7 2.2-1.3.1-4.2 1.5-6.4 2.9-2.2 1.5-4.3 2.7-4.6 2.7-1.2 0-5.1 4.7-6.7 8-1.2 2.5-1.3 3.9-.6 4.7.7.9.7 2.2-.2 4.3-2.8 6.8 1.1 16.9 8 20.5 4 2.1 4.1 2 2.4-2-1.8-4.5-1.8-14.8.1-21.2 1.6-5.5 2.2-5.9 13.7-9.8 14.3-5 28.2-4.2 42.8 2.5 4.7 2.1 10 4.1 11.8 4.5 2.8.6 3.2.4 3.2-1.4 0-1.8-.9-2.9-6.9-8.2-1-.9-4.6-3.3-8-5.2-10.9-6.4-32.4-8.7-41.9-4.5z"/><path d="M265.3 244.5c-7 1.9-12.5 4.9-14.1 7.4-1.4 2.3-.1 2.9 1.7.7 4.4-5.3 22.5-8 36.6-5.6 9 1.5 10.7.8 3.3-1.5-7.5-2.4-21.1-2.8-27.5-1z"/><path d="M265.2 248.5c-5.3 1.6-10.7 5.7-12.7 9.5-1.5 3-2.1 6.5-.7 4.4.4-.7 4.2-1.2 9.9-1.3 9.3 0 20.9-2.3 28.9-5.7 2.1-.9 5-2.1 6.4-2.6 2.3-.9 2.4-1 .6-2-6.6-3.7-24-4.9-32.4-2.3zm26.3 1.8l5 1.3-4.9 1.7c-6.4 2.2-6.3 2.2-6.8-1.3-.5-3.4-.3-3.5 6.7-1.7zm-25.2 1.6c-.3 1.3.4 2.9 2 4.5l2.5 2.5-5.2.6c-2.8.4-6.8.5-8.9.3l-3.9-.3 2.1-2.6c1.8-2.3 9.3-6.9 11.3-6.9.3 0 .4.9.1 1.9zm8.2 2.2c-.8 1.2-3.5 1.2-3.5 0 0-1.1 2.2-2 3.3-1.4.4.2.5.9.2 1.4zm-87.3 13.4c-9.9 2.8-15.4 7.1-17.2 13.4-1.2 4.5-1.2 5.1 0 5.1.6 0 1-1 1-2.3 0-7.3 11.7-14.9 23.3-15.1 3.4 0 7.1.3 8.2.8 1.8.8 1.9.7.5-.7-2.2-2.4-9.6-2.9-15.8-1.2z"/><path d="M184.3 273.4c-7.3 3.4-13.8 13.7-9.5 14.8 6.3 1.7 22.7-4 28.3-9.8 3.1-3.2 3.2-3.5 1.6-5.1-1.2-1.2-3.8-1.8-8.5-2.1-5.5-.2-7.6.2-11.9 2.2zm19.5.5c1.1.6 1 1 0 1.9-1.1.8-1.7.6-2.6-.9-1-1.5-1-1.9 0-1.9.7 0 1.9.4 2.6.9zm-16.4 7c.5.7 1.8 1.6 3 2 1.8.7 1.3 1.1-3.3 2.5-5.3 1.5-12.1 2.2-12.1 1.1 0-2.2 4.5-8.6 7.2-10.3l3.3-2.1.6 2.8c.3 1.5.9 3.3 1.3 4zm4.6-1.4c0 .8-.7 1.5-1.6 1.5-1.4 0-1.4-.3-.4-1.5.7-.8 1.4-1.5 1.6-1.5.2 0 .4.7.4 1.5zm16.2-1c-.2 4.4-.9 13.4-1.7 20-1.9 15.4-1.9 23.4 0 27.9 1.7 4 5.5 7 8.2 6.3 1.5-.4 1.4-.5-.4-.6-3.1-.2-7.1-5.4-7.8-10.5-.4-2.5 0-10.9 1-18.8.9-7.9 1.5-18.4 1.3-23.3l-.4-9-.2 8zm-9.3 8.4c-1.5 1.5-5.7 4.4-9.5 6.4s-6.3 3.7-5.5 3.7c3.7.1 19.7-10.9 18-12.4-.2-.2-1.6.8-3 2.3zm51.7 14.9c5.2 4.1 6 11.8 1.8 15.7-1.5 1.4-3.2 2.5-3.7 2.5-.6 0-.8.3-.5.6.4.3 1.9-.1 3.6-1 3.6-1.9 5.7-6.5 4.8-10.8-.6-3.3-5.1-8.8-7-8.8-.6 0-.1.8 1 1.8zm-16.5 15c-7.4 3.7-6.3 7.7 1.7 6.8 5.8-.8 8.2-2.2 8.2-5 0-3.9-4.3-4.7-9.9-1.8z"/><path d="M211 325.9c0 1.5 4.2 4.1 6.7 4.1 3.2 0 3-2.8-.3-4-3.2-1.3-6.4-1.3-6.4-.1zm28.3 4.1c-4.9 2.5-10.1 4.3-13.4 4.7-4.7.5-5.9 1.2-9.2 4.7-5.3 5.6-12 19.4-12.1 24.9-.1 3.6.2 4.2 2.1 4.5 3.2.5 9.8-3.3 12.4-7 4.7-6.9 7.1-8.8 10.8-8.7l3.6.1-3.5 1c-1.9.5-4.5 1.9-5.8 3.1-2.7 2.5-11.2 15.8-11.2 17.4 0 1.5 4.9 3.1 12.1 3.9 3.8.4 6.3 1.2 6.6 2.1.9 2.4 8 5.3 12.8 5.3 5.6 0 19.2-5.1 22.9-8.5 3.6-3.3 3.4-8.6-.3-9.5-2.2-.5-2.1-.7 1.8-2.4 3.9-1.8 10.3-7.8 11.2-10.5.3-.7 2.7-1.8 5.4-2.6l5-1.5-4.5.6c-7.3 1-9.9.9-22.7-1-14.1-2.1-17.9-1.7-21.8 2.4-1.6 1.7-3.6 3-4.4 2.9-1.4 0-1.4-.1-.1-.6.8-.3 3.2-2.4 5.2-4.6l3.8-4 7.2.9c9.7 1.2 25.3 1 30.4-.5 5.9-1.6 7.1-3.4 4.2-6.1-2.9-2.8-20.6-11.3-27.7-13.4-8.4-2.5-11.9-2.1-20.8 2.4zm36.7 28c-2.4 3.4-17.7 11.2-30.7 15.7-6.1 2.1-9.8 2.7-17 2.7-5.4.1-9.6-.3-10.3-1-1.6-1.6 10.1-7.1 17.5-8.3 3.5-.5 9.9-2.8 15.4-5.5 7.5-3.7 10.6-4.6 15-4.7 4.5-.1 9.4-.8 11.9-1.8.2 0-.6 1.3-1.8 2.9z"/><path d="M247.5 366.9c-6.1 3.5-17.3 7.1-22.4 7.2-3.4 0-3.5.1-1.1 1 6.5 2.6 35-5.6 35-10.1 0-2-6.6-.9-11.5 1.9zm151.1-120.4c2.1 3 5 9 6.6 13.3 2.5 6.7 2.8 7.2 2.4 3.5-.5-4.8-4.5-14.2-8.2-19-4.1-5.4-4.7-3.7-.8 2.2zm-11.9 2.3c-2.5 2.7-5.6 10.5-6.3 15.5-.5 3.1-.1 5.5 1.1 8 1.9 4.1 1.7 11.1-.5 16.4-1.9 4.4-.2 6.3 5.9 6.3 7.8 0 11.8-1.7 15.2-6.3 2.9-3.9 3.1-4.7 2.6-10.4-.3-3.8-1.6-8.7-3.5-13-1.7-3.7-3.4-8.2-3.7-10-1.4-7-7.2-10.5-10.8-6.5zm9.2 8.5c.1 1 1.5 4.7 3.2 8.2 3.7 7.7 4.8 15.9 2.6 20.1-2.4 4.6-4.8 6.2-10.7 7.1-6.5 1-9 .7-9-1.3 0-1.6 2-5.6 3.4-6.5 1.3-1-.1-8.3-2.5-12.9-2.5-4.8-2.1-8.1 1.6-14 2-3.2 3.1-4 5.5-4 1.6 0 3.2-.5 3.6-1.2.8-1.3 2.2 1.4 2.3 4.5z"/><path d="M389.7 271c4 2.4 5.4 5 5.5 10 0 2.2.4 3.7.9 3.4 1.3-.7 1.1-7.1-.2-9.7-1.5-3-5-5.7-7.4-5.7-1.6 0-1.3.4 1.2 2zm37 131.6c-.4.4-.7 2.7-.7 5 0 5 1.6 6.5 9 8.4 2.5.6 6.7 1.8 9.3 2.7l4.9 1.5-.7 6.7c-.9 8.8.5 10.2 11.1 11 4.1.4 7.7.4 8 0 .7-1.2-2.5-1.9-8-1.9h-5.3l.5-4.9c.3-4 .1-5.1-1.5-6.2-1.1-.8-2.3-2.4-2.7-3.7-.9-2.7-3.2-3.7-13.1-5.9l-7-1.5.3-3.7c.4-3.7-2.5-9.1-4.1-7.5zM372 477.4c-78.9 32.5-85.5 35.4-85.8 37.6-.1 1.4.1 3 .6 3.7.6.9 25.4-8.9 90.7-35.8 49.5-20.3 91-37.2 92.3-37.5 5.3-1.4.9-3.4-7.3-3.3-4.2 0-18.4 5.6-90.5 35.3z"/></svg>