<svg style="position:absolute;width:0;height:0;overflow:hidden" aria-hidden="true" xmlns="http://www.w3.org/2000/svg"><style>.default-palette,.palette0{color:currentColor;--color0:#fed049;--color1:#f6b445;--color2:#f6a645;--color3:#000;--color4:#f61c0d;--color5:#0a66c2;--color6:#ea4c89;--color7:#f9ccdd;--color8:#fff;--color9:#0053ff;--color10:#ba28dd;--color11:#279fda}</style><defs><symbol id="telegram" viewBox="0 0 512 512" xmlns:xlink="http://www.w3.org/1999/xlink"><path fill="var(--color11, #279fda)" d="M291 220q6-4 8-1t-3 8c-31 32-54 50-67 65q-9 10 5 20l62 42c25 17 33 3 36-14q17-91 24-151c2-15-3-23-22-17q-27 8-194 81c-21 8-17 17-5 21s21 7 33 10 20 4 34-5m55-215a192 192 0 1 1-2 0"/></symbol><symbol id="instagram" viewBox="0 0 512 512" xmlns:xlink="http://www.w3.org/1999/xlink"><g stroke-width="30" stroke="var(--color10, #ba28dd)" fill="none"><path d="M166.41 59h179.18A99.41 99.41 0 0 1 445 158.41v179.18A99.41 99.41 0 0 1 345.59 437H166.41A99.41 99.41 0 0 1 67 337.59V158.41A99.41 99.41 0 0 1 166.41 59z"/><circle cx="256" cy="248" r="88.364"/><circle cx="367.682" cy="136.318" r="7.364"/></g></symbol><symbol id="behance" viewBox="0 0 40 40" fill="none"><path fill="var(--color9, #0053ff)" d="M36.289 0H3.71A3.711 3.711 0 0 0 0 3.711V36.29A3.711 3.711 0 0 0 3.711 40H36.29A3.711 3.711 0 0 0 40 36.289V3.71A3.711 3.711 0 0 0 36.289 0z"/><path fill="var(--color8, #fff)" d="M23.74 13.172h6.267v1.56H23.74zm8.76 8.762c0-3.255-2.52-5.893-5.627-5.893s-5.627 2.638-5.627 5.893 2.338 5.89 5.627 5.89c2.5 0 4.636-1.1 5.361-3.74h-2.639a2.83 2.83 0 0 1-2.5 1.493c-1.475 0-2.772-1.057-2.695-2.834h8.057c.043-.26.043-.527.043-.81zm-8.09-1.157c.194-1.464 1.229-2.398 2.476-2.398 1.248 0 2.273.934 2.478 2.398zm-4.128 1.405c-.205-2.26-2.76-3.02-2.76-3.02.971-.455 2.128-1.385 2.117-3.433-.018-2.954-3.1-3.554-4.091-3.554H7.5v15.368h7.311c1.016 0 2.098-.134 2.955-.561 2.311-1.137 2.716-2.539 2.516-4.8zm-9.4-7.355h3.459s2.045-.048 2.045 1.761-2.045 1.76-2.045 1.76h-3.46zm3.664 10.107h-3.664v-4.202h3.664s2.436-.057 2.436 2.1-2.436 2.102-2.436 2.102z"/></symbol><symbol id="youtube" viewBox="0 0 40 29" fill="none"><path fill="var(--color4, #f61c0d)" d="M31.692 0H8.308A8.308 8.308 0 0 0 0 8.307v11.69a8.308 8.308 0 0 0 8.307 8.308h23.386A8.308 8.308 0 0 0 40 19.998V8.308A8.308 8.308 0 0 0 31.692 0zm-5.618 14.721-10.938 5.217a.44.44 0 0 1-.628-.396V8.782a.44.44 0 0 1 .638-.392l10.938 5.543a.44.44 0 0 1-.01.788z"/></symbol><symbol id="linkedin" viewBox="0 0 40 40" fill="none"><path fill="var(--color5, #0a66c2)" d="M40 2.941V37.06A2.942 2.942 0 0 1 37.059 40H2.94A2.941 2.941 0 0 1 0 37.059V2.94A2.94 2.94 0 0 1 2.941 0H37.06A2.941 2.941 0 0 1 40 2.941zM11.765 15.294H5.882v18.824h5.883zm.53-6.47a3.389 3.389 0 0 0-3.366-3.412h-.106a3.412 3.412 0 1 0 0 6.823 3.39 3.39 0 0 0 3.471-3.306zm21.823 13.858c0-5.658-3.6-7.858-7.177-7.858a6.706 6.706 0 0 0-5.953 3.035h-.164v-2.565h-5.53v18.824h5.883V24.106a3.905 3.905 0 0 1 3.529-4.212h.223c1.871 0 3.26 1.177 3.26 4.141v10.083h5.882z"/></symbol><symbol id="dribbble" viewBox="0 0 40 40" fill="none"><path fill="var(--color7, #f9ccdd)" d="M20 40c11.046 0 20-8.954 20-20S31.046 0 20 0 0 8.954 0 20s8.954 20 20 20z"/><path fill="var(--color6, #ea4c89)" d="M20 32.5A12.5 12.5 0 1 0 7.5 20 12.528 12.528 0 0 0 20 32.5zm0-2.273a10.112 10.112 0 0 1-5.793-1.818 15.682 15.682 0 0 1 7.527-5.752 31.232 31.232 0 0 1 1.364 7.034 10.24 10.24 0 0 1-3.098.536zm5.273-1.509a33.345 33.345 0 0 0-1.352-6.673 15.577 15.577 0 0 1 6.093 0 10.248 10.248 0 0 1-4.748 6.67zm4.93-8.945a18.01 18.01 0 0 0-7.046.1 31.535 31.535 0 0 0-.943-2.196 18.05 18.05 0 0 0 5.193-4.704 10.227 10.227 0 0 1 2.795 6.8zM20 9.773a10.189 10.189 0 0 1 5.66 1.707 15.764 15.764 0 0 1-4.492 4.175 33.078 33.078 0 0 0-3.848-5.482 10.216 10.216 0 0 1 2.68-.4zm-4.89 1.3a31.196 31.196 0 0 1 4.029 5.613 15.698 15.698 0 0 1-9.078 1 10.205 10.205 0 0 1 5.048-6.613zm-2.155 9.197a17.9 17.9 0 0 0 7.236-1.552c.286.598.54 1.187.786 1.818A17.884 17.884 0 0 0 12.5 26.9 10.148 10.148 0 0 1 9.773 20a23.4 23.4 0 0 0 3.182.27z"/></symbol><symbol id="email" viewBox="0 0 40 30" fill="none"><path fill="var(--color3, #000)" fill-opacity=".1" d="M-1508.5-5707.48v1h2616v-2h-2616zm2618 2h-1v7700h2v-7700zm-2 7702v-1h-2616v2h2616zm-2618-2h1v-7700h-2v7700zm2 2v-1c-.55 0-1-.45-1-1h-2c0 1.66 1.34 3 3 3zm2618-2h-1c0 .55-.45 1-1 1v2c1.66 0 3-1.34 3-3zm-2-7702v1c.55 0 1 .45 1 1h2c0-1.66-1.34-3-3-3zm-2616 0v-1c-1.66 0-3 1.34-3 3h2c0-.55.45-1 1-1z"/><g fill="var(--color1, #f6b445)" clip-path="url(#clip0_1140_9265)"><path d="M40 1.74v24.347a3.5 3.5 0 0 1-1.018 2.461L23.478 13.044l-.243-.374z"/><path fill="var(--color2, #f6a645)" d="M38.983 28.548a3.5 3.5 0 0 1-2.461 1.017H3.478a3.5 3.5 0 0 1-2.46-1.017l15.504-15.505.217-.339L20 14.783l3.235-2.114.243.374z"/><path d="m16.74 12.705-.218.339L1.017 28.548A3.5 3.5 0 0 1 0 26.088V3.477c-.001-.35.052-.7.157-1.034l.713.165z"/><path fill="var(--color0, #fed049)" d="M40 1.74 23.235 12.67 20 14.782l-3.26-2.079L.87 2.61l-.714-.166A3.478 3.478 0 0 1 3.478 0h32.174C39.13 0 40 1.74 40 1.74z"/></g><defs><clipPath id="clip0_1140_9265"><path fill="#fff" transform="translate(0 -5.217)" d="M0 5.217h40v29.565H0z"/></clipPath></defs></symbol><symbol id="caret-right" viewBox="0 0 32 32" fill="currentColor" xmlns:xlink="http://www.w3.org/1999/xlink"><path d="m22.707 16.707-10 10a1 1 0 0 1-1.415-1.415L20.587 16l-9.293-9.293a1 1 0 0 1 1.415-1.415l10 10a1 1 0 0 1 0 1.416z"/></symbol></defs></svg>