<?xml version="1.0" standalone="no"?>
<!DOCTYPE svg PUBLIC "-//W3C//DTD SVG 20010904//EN"
 "http://www.w3.org/TR/2001/REC-SVG-20010904/DTD/svg10.dtd">
<svg version="1.0" xmlns="http://www.w3.org/2000/svg"
 width="600.000000pt" height="600.000000pt" viewBox="0 0 600.000000 600.000000"
 preserveAspectRatio="xMidYMid meet">
<metadata>
Created by potrace 1.14, written by Peter Selinger 2001-2017
</metadata>
<g transform="translate(0.000000,600.000000) scale(0.100000,-0.100000)"
fill="#000000" stroke="none">
<path d="M2714 5125 c-17 -8 -36 -21 -43 -29 -21 -26 -126 -21 -176 7 -44 25
-115 35 -115 16 0 -8 -12 -9 -37 -4 -55 10 -92 12 -87 4 8 -13 -55 -31 -88
-24 -24 5 -29 4 -18 -4 13 -9 12 -11 -4 -11 -11 0 -29 -9 -41 -20 -12 -11 -56
-30 -98 -43 -53 -16 -74 -26 -67 -33 12 -12 -93 -90 -108 -80 -4 3 -26 -6 -48
-19 -21 -14 -36 -25 -32 -25 18 -1 -72 -74 -111 -90 -25 -11 -40 -19 -32 -19
11 -1 11 -5 -2 -19 -10 -10 -17 -22 -17 -27 0 -5 -7 -17 -17 -27 -9 -10 -12
-18 -6 -18 5 0 10 -7 10 -15 0 -16 -102 -123 -162 -170 -54 -42 -66 -77 -56
-164 4 -42 3 -96 -3 -128 -7 -38 -6 -60 1 -72 23 -37 24 -95 4 -156 -11 -33
-21 -63 -21 -66 0 -10 34 -7 48 4 19 15 24 3 12 -29 -7 -18 -8 -30 -2 -32 6
-2 8 -11 5 -21 -3 -11 7 -32 25 -52 27 -32 31 -45 51 -197 12 -89 27 -179 34
-200 7 -21 44 -89 81 -151 79 -133 102 -207 117 -391 25 -302 86 -441 328
-740 42 -52 117 -137 166 -190 50 -52 99 -108 109 -125 41 -66 102 -129 142
-146 23 -11 80 -22 130 -25 63 -5 93 -12 101 -23 21 -27 109 -200 152 -300
l40 -93 -18 -37 c-42 -82 -62 -195 -45 -258 13 -47 20 -21 10 37 -9 55 -7 66
23 152 18 51 33 105 33 121 1 15 2 27 2 27 1 0 19 -9 41 -20 89 -45 201 -14
298 83 67 68 101 136 122 252 33 174 103 348 191 471 24 34 88 103 144 154 80
74 102 101 111 134 12 42 7 407 -7 530 l-7 60 28 -22 c16 -13 48 -28 72 -34
53 -13 60 -26 98 -194 45 -198 54 -223 136 -389 96 -195 116 -228 143 -245 19
-11 19 -10 -3 13 -12 14 -20 30 -16 36 3 6 -13 51 -38 99 -34 69 -43 96 -39
125 3 24 -4 56 -19 91 -20 50 -21 59 -9 95 12 36 11 42 -8 66 -15 18 -19 35
-16 54 4 18 -2 40 -16 64 -19 31 -21 45 -15 100 5 43 3 67 -4 71 -7 5 -3 23
14 56 14 27 25 59 25 70 0 11 11 46 24 78 42 100 69 253 64 356 -6 104 -24
154 -88 241 -38 51 -41 60 -35 100 3 25 1 52 -4 62 -5 10 -14 86 -19 168 -9
122 -8 155 3 178 11 23 11 27 -1 27 -10 0 -14 12 -14 39 0 22 -4 42 -9 45 -5
3 -11 15 -14 26 -3 11 -1 18 3 15 4 -3 6 4 3 15 -3 11 -9 23 -14 26 -5 3 -9
14 -9 25 0 10 -5 19 -10 19 -6 0 -16 12 -22 28 -7 15 -19 36 -27 46 -13 15
-13 20 -3 23 10 4 8 9 -5 19 -16 12 -16 15 -3 24 10 6 11 10 3 10 -7 0 -10 6
-7 14 3 9 -3 17 -15 21 -12 3 -20 9 -17 13 7 14 -14 52 -29 52 -8 0 -15 7 -15
15 0 8 0 17 0 20 0 2 -12 16 -26 30 -14 14 -22 30 -19 35 3 6 3 10 -2 10 -4 0
-16 14 -25 30 -9 17 -24 30 -33 30 -9 0 -15 9 -15 24 0 24 -23 41 -41 30 -5
-3 -9 2 -9 10 0 8 -12 24 -27 36 -16 12 -27 24 -25 28 7 12 -68 39 -95 35 -21
-3 -24 -2 -14 5 11 8 5 11 -24 14 -32 2 -40 7 -45 28 -5 23 -10 25 -68 26 -34
1 -68 6 -75 12 -8 7 -17 9 -20 5 -4 -3 -7 -1 -7 6 0 8 -7 11 -15 7 -13 -4 -13
-2 -5 14 10 18 9 19 -26 4 -21 -9 -46 -13 -58 -10 -11 3 -28 -2 -38 -11 -14
-12 -18 -13 -18 -3 0 11 -3 11 -12 2 -9 -9 -17 -5 -35 16 l-24 27 -24 -28
c-14 -15 -25 -25 -25 -21 0 3 -6 2 -12 -3 -15 -12 -58 -11 -75 0 -10 6 -9 13
2 31 19 28 8 40 -19 22 -31 -19 -81 -16 -80 7 2 20 -9 22 -38 6 -15 -8 -19 -8
-14 0 4 6 2 11 -5 11 -8 0 -8 4 1 15 16 19 -2 19 -46 0z m200 -629 c-7 -18 28
-24 76 -14 32 7 38 5 66 -28 18 -19 34 -30 36 -23 2 7 8 6 17 -5 12 -14 12
-16 -3 -10 -23 9 -20 -5 6 -33 19 -20 20 -23 4 -17 -16 6 -17 5 -5 -14 7 -11
17 -18 23 -15 5 3 6 1 2 -5 -4 -6 1 -24 11 -39 12 -18 13 -24 4 -19 -16 10 -8
-7 18 -37 8 -10 16 -28 17 -40 2 -35 16 -71 33 -84 14 -12 14 -12 -4 -6 -16 5
-14 0 10 -27 l30 -33 -32 21 c-37 26 -44 27 -36 5 5 -12 2 -15 -10 -10 -18 7
-24 -8 -7 -18 6 -4 8 -11 4 -16 -3 -5 2 -21 10 -34 17 -26 9 -34 -12 -13 -7 7
-12 8 -12 2 0 -6 16 -25 35 -44 19 -18 33 -36 30 -38 -2 -3 12 -18 33 -34 20
-16 43 -42 50 -56 12 -25 12 -26 -2 -8 -18 23 -21 14 -5 -15 5 -11 14 -17 19
-14 6 3 7 0 4 -8 -3 -8 0 -18 5 -22 6 -3 9 -11 6 -16 -4 -5 2 -21 13 -37 21
-31 21 -31 96 -314 58 -217 81 -276 118 -302 29 -20 87 -20 116 0 26 18 30 75
11 150 -16 62 0 133 55 250 25 52 47 94 49 94 3 0 -3 -28 -14 -62 -40 -134
-42 -198 -19 -640 12 -227 20 -447 18 -489 -7 -122 -26 -142 -273 -294 l-110
-68 39 43 c57 64 77 117 88 244 21 239 -4 377 -96 515 l-47 71 -67 -47 c-37
-26 -91 -65 -120 -86 l-54 -39 -26 24 c-21 18 -23 19 -9 2 18 -22 23 -44 9
-44 -19 0 -134 -115 -154 -154 -19 -35 -21 -56 -20 -153 2 -135 -11 -176 -74
-232 -89 -78 -299 -161 -408 -161 -63 0 -153 27 -200 59 -23 16 -62 55 -86 86
-89 115 -168 163 -225 137 -23 -11 -27 -7 -69 61 -83 134 -121 258 -136 441
-11 134 -35 248 -81 383 -18 50 -29 98 -26 106 9 25 72 67 131 87 69 25 175
26 240 4 59 -20 77 -9 55 33 -14 26 -69 65 -98 70 -8 1 -26 5 -40 9 -14 4 -28
7 -31 7 -101 -15 -182 -42 -229 -77 -41 -31 -44 -19 -63 284 -15 237 -14 286
6 305 9 9 16 20 16 25 0 17 54 60 61 49 3 -6 20 12 38 40 31 51 51 65 51 35 0
-13 5 -12 30 6 17 12 30 19 30 15 0 -3 6 -3 13 2 6 4 17 8 24 9 6 1 29 15 50
30 35 26 36 27 18 4 l-20 -24 30 22 c17 12 44 32 60 44 l30 22 -20 -23 -20
-23 30 13 c17 7 46 25 64 39 19 14 32 19 27 13 -4 -7 -4 -13 -1 -13 8 0 67 40
75 51 3 3 20 14 38 23 l33 17 -16 -30 c-16 -33 -7 -42 16 -15 23 28 99 75 122
76 12 1 31 8 42 15 26 17 46 17 39 -2 -8 -21 10 -19 30 4 14 16 43 29 76 35 3
1 11 5 19 10 11 7 13 5 8 -7 -8 -22 1 -22 26 1 19 16 20 16 8 -5 -15 -29 -14
-36 5 -29 12 4 15 2 11 -8 -6 -16 21 -5 116 45 37 20 48 15 25 -11 -7 -8 -3
-6 10 4 15 13 22 15 22 6 0 -9 6 -7 20 5 12 11 28 20 37 21 8 2 20 7 26 13 15
15 17 14 11 -3z m1126 -838 c47 -32 78 -98 90 -192 9 -70 7 -93 -16 -205 -14
-69 -34 -146 -45 -170 -10 -24 -19 -56 -19 -71 0 -34 -52 -138 -81 -162 -39
-33 -131 -16 -172 30 -35 39 -50 362 -23 502 27 143 72 240 125 274 38 23 102
20 141 -6z"/>
<path d="M2602 3738 c-24 -11 -54 -21 -67 -22 -13 -1 -42 -15 -64 -29 -22 -15
-43 -27 -46 -27 -12 0 -51 -47 -67 -80 -12 -25 -13 -39 -6 -47 7 -9 7 -22 -2
-43 -28 -68 11 -169 80 -205 40 -21 41 -20 24 20 -18 45 -18 148 1 212 16 55
22 59 137 98 143 50 282 42 428 -25 47 -21 100 -41 118 -45 28 -6 32 -4 32 14
0 18 -9 29 -69 82 -10 9 -46 33 -80 52 -109 64 -324 87 -419 45z"/>
<path d="M2653 3555 c-70 -19 -125 -49 -141 -74 -14 -23 -1 -29 17 -7 44 53
225 80 366 56 90 -15 107 -8 33 15 -75 24 -211 28 -275 10z"/>
<path d="M2652 3515 c-53 -16 -107 -57 -127 -95 -15 -30 -21 -65 -7 -44 4 7
42 12 99 13 93 0 209 23 289 57 21 9 50 21 64 26 23 9 24 10 6 20 -66 37 -240
49 -324 23z m263 -18 l50 -13 -49 -17 c-64 -22 -63 -22 -68 13 -5 34 -3 35 67
17z m-252 -16 c-3 -13 4 -29 20 -45 l25 -25 -52 -6 c-28 -4 -68 -5 -89 -3
l-39 3 21 26 c18 23 93 69 113 69 3 0 4 -9 1 -19z m82 -22 c-8 -12 -35 -12
-35 0 0 11 22 20 33 14 4 -2 5 -9 2 -14z"/>
<path d="M1872 3325 c-99 -28 -154 -71 -172 -134 -12 -45 -12 -51 0 -51 6 0
10 10 10 23 0 73 117 149 233 151 34 0 71 -3 82 -8 18 -8 19 -7 5 7 -22 24
-96 29 -158 12z"/>
<path d="M1843 3266 c-73 -34 -138 -137 -95 -148 63 -17 227 40 283 98 31 32
32 35 16 51 -12 12 -38 18 -85 21 -55 2 -76 -2 -119 -22z m195 -5 c11 -6 10
-10 0 -19 -11 -8 -17 -6 -26 9 -10 15 -10 19 0 19 7 0 19 -4 26 -9z m-164 -70
c5 -7 18 -16 30 -20 18 -7 13 -11 -33 -25 -53 -15 -121 -22 -121 -11 0 22 45
86 72 103 l33 21 6 -28 c3 -15 9 -33 13 -40z m46 14 c0 -8 -7 -15 -16 -15 -14
0 -14 3 -4 15 7 8 14 15 16 15 2 0 4 -7 4 -15z"/>
<path d="M2082 3215 c-2 -44 -9 -134 -17 -200 -19 -154 -19 -234 0 -279 17
-40 55 -70 82 -63 15 4 14 5 -4 6 -31 2 -71 54 -78 105 -4 25 0 109 10 188 9
79 15 184 13 233 l-4 90 -2 -80z"/>
<path d="M1989 3131 c-15 -15 -57 -44 -95 -64 -38 -20 -63 -37 -55 -37 37 -1
197 109 180 124 -2 2 -16 -8 -30 -23z"/>
<path d="M2506 2982 c52 -41 60 -118 18 -157 -15 -14 -32 -25 -37 -25 -6 0 -8
-3 -5 -6 4 -3 19 1 36 10 36 19 57 65 48 108 -6 33 -51 88 -70 88 -6 0 -1 -8
10 -18z"/>
<path d="M2341 2832 c-74 -37 -63 -77 17 -68 58 8 82 22 82 50 0 39 -43 47
-99 18z"/>
<path d="M2110 2741 c0 -15 42 -41 67 -41 32 0 30 28 -3 40 -32 13 -64 13 -64
1z"/>
<path d="M2393 2700 c-49 -25 -101 -43 -134 -47 -47 -5 -59 -12 -92 -47 -53
-56 -120 -194 -121 -249 -1 -36 2 -42 21 -45 32 -5 98 33 124 70 47 69 71 88
108 87 l36 -1 -35 -10 c-19 -5 -45 -19 -58 -31 -27 -25 -112 -158 -112 -174 0
-15 49 -31 121 -39 38 -4 63 -12 66 -21 9 -24 80 -53 128 -53 56 0 192 51 229
85 36 33 34 86 -3 95 -22 5 -21 7 18 24 39 18 103 78 112 105 3 7 27 18 54 26
l50 15 -45 -6 c-73 -10 -99 -9 -227 10 -141 21 -179 17 -218 -24 -16 -17 -36
-30 -44 -29 -14 0 -14 1 -1 6 8 3 32 24 52 46 l38 40 72 -9 c97 -12 253 -10
304 5 59 16 71 34 42 61 -29 28 -206 113 -277 134 -84 25 -119 21 -208 -24z
m367 -280 c-24 -34 -177 -112 -307 -157 -61 -21 -98 -27 -170 -27 -54 -1 -96
3 -103 10 -16 16 101 71 175 83 35 5 99 28 154 55 75 37 106 46 150 47 45 1
94 8 119 18 2 0 -6 -13 -18 -29z"/>
<path d="M2475 2331 c-61 -35 -173 -71 -224 -72 -34 0 -35 -1 -11 -10 65 -26
350 56 350 101 0 20 -66 9 -115 -19z"/>
<path d="M3986 3535 c21 -30 50 -90 66 -133 25 -67 28 -72 24 -35 -5 48 -45
142 -82 190 -41 54 -47 37 -8 -22z"/>
<path d="M3867 3512 c-25 -27 -56 -105 -63 -155 -5 -31 -1 -55 11 -80 19 -41
17 -111 -5 -164 -19 -44 -2 -63 59 -63 78 0 118 17 152 63 29 39 31 47 26 104
-3 38 -16 87 -35 130 -17 37 -34 82 -37 100 -14 70 -72 105 -108 65z m92 -85
c1 -10 15 -47 32 -82 37 -77 48 -159 26 -201 -24 -46 -48 -62 -107 -71 -65
-10 -90 -7 -90 13 0 16 20 56 34 65 13 10 -1 83 -25 129 -25 48 -21 81 16 140
20 32 31 40 55 40 16 0 32 5 36 12 8 13 22 -14 23 -45z"/>
<path d="M3897 3290 c40 -24 54 -50 55 -100 0 -22 4 -37 9 -34 13 7 11 71 -2
97 -15 30 -50 57 -74 57 -16 0 -13 -4 12 -20z"/>
<path d="M4267 1974 c-4 -4 -7 -27 -7 -50 0 -50 16 -65 90 -84 25 -6 67 -18
93 -27 l49 -15 -7 -67 c-9 -88 5 -102 111 -110 41 -4 77 -4 80 0 7 12 -25 19
-80 19 l-53 0 5 49 c3 40 1 51 -15 62 -11 8 -23 24 -27 37 -9 27 -32 37 -131
59 l-70 15 3 37 c4 37 -25 91 -41 75z"/>
<path d="M3720 1226 c-789 -325 -855 -354 -858 -376 -1 -14 1 -30 6 -37 6 -9
254 89 907 358 495 203 910 372 923 375 53 14 9 34 -73 33 -42 0 -184 -56
-905 -353z"/>
</g>
</svg>
