<svg aria-hidden="true" style="position:absolute;width:0;height:0" xmlns="http://www.w3.org/2000/svg" overflow="hidden"><defs><symbol id="icon-cloud" viewBox="0 0 42 32"><path d="M33.958 12.988C33.531 6.376 28.933 0 20.5 0 12.787 0 6.839 5.733 6.524 13.384 2.304 14.697 0 19.213 0 22.5 0 27.561 4.206 32 9 32h24c4.847 0 9-5.224 9-9.5 0-5.167-4.223-9.208-8.042-9.512zM33 31H9c-4.262 0-8-3.972-8-8.5C1 19.449 3.674 14 9 14h1.5a.5.5 0 000-1H9c-.509 0-.99.057-1.459.139C7.933 7.149 12.486 1 20.5 1 29.088 1 33 7.739 33 14v1.5a.5.5 0 001 0v-1.509c3.019.331 7 3.571 7 8.509 0 3.826-3.691 8.5-8 8.5z"/></symbol><symbol id="icon-figma" viewBox="0 0 32 32"><path fill="var(--color1, #f24e1e)" d="M16 16a5.333 5.333 0 1110.666 0A5.333 5.333 0 1116 16zM5.333 26.667a5.333 5.333 0 015.333-5.333h5.333v5.333a5.333 5.333 0 11-10.666 0zM16 0v10.667h5.333a5.333 5.333 0 100-10.666zM5.333 5.333a5.333 5.333 0 005.333 5.333h5.333V-.001h-5.333a5.333 5.333 0 00-5.333 5.333zm0 10.667a5.333 5.333 0 005.333 5.333h5.333V10.666h-5.333a5.333 5.333 0 00-5.333 5.333z"/></symbol><symbol id="icon-cloud1" viewBox="0 0 32 32"><path d="M7.101 15.102A4.006 4.006 0 004 19c0 2.209 1.798 4 4.003 4h16.994A4.004 4.004 0 0029 19a4.008 4.008 0 00-3.042-3.884 4.5 4.5 0 00-7.606-3.831 6 6 0 00-11.251 3.817zm19.898-.687A4.999 4.999 0 0130 19c0 2.756-2.238 5-4.999 5H8a4.996 4.996 0 01-4.999-5 5.006 5.006 0 013.012-4.588 7 7 0 0112.602-4.595A5.5 5.5 0 0127 14.415z"/></symbol><symbol id="icon-cloud2" viewBox="0 -99 512 512"><path d="M512 228.148c0 47.528-38.531 86.059-86.078 86.059H114.445C51.246 314.207.004 262.98.004 199.762c0-63.2 51.242-114.446 114.441-114.446 5.672 0 11.246.438 16.707 1.227C157 35.219 210.152 0 271.56 0c74.296 0 136.546 51.586 152.894 120.89a155.96 155.96 0 013.492 21.231v.016c46.59 1.066 84.055 39.16 84.055 86.011zm0 0"/><path d="M326.164 9.766C309.152 3.449 290.75.008 271.56.008c-61.407 0-114.543 35.219-140.41 86.527v.016a116.068 116.068 0 00-16.704-1.227C51.23 85.324 0 136.57 0 199.77c0 63.214 51.23 114.445 114.445 114.445h55.317c-56.965 0-103.121-46.172-103.121-103.121 0-50.535 36.351-92.586 84.347-101.407 4.75-.886 9.614-1.437 14.57-1.632 1.391-.047 2.797-.082 4.204-.082 18.511 0 35.894 4.879 50.906 13.445-2.086-14.531-17.106-28.14-39.25-39.106 12.16-41.125 53.543-79.265 144.746-72.546zm0 0"/></symbol><symbol id="icon-cloud" viewBox="0 0 32 32"><path d="M32 20.548a5.452 5.452 0 00-4.156-5.296A7.438 7.438 0 0020.411 8a7.42 7.42 0 00-5.839 2.835 4.168 4.168 0 00-3.303-1.624 4.177 4.177 0 00-4.133 4.771 6.056 6.056 0 00-7.134 5.96A6.056 6.056 0 006.056 26h20.508a5.45 5.45 0 005.438-5.451z"/></symbol><symbol id="icon-linkedin" viewBox="0 0 20 20"><path d="M5 3c0 1.062-.71 1.976-2.001 1.976C1.784 4.976 1 4.114 1 3.052 1 1.962 1.76 1 3 1s1.976.91 2 2zM1 19V6h4v13H1zm6-8.556c0-1.545-.051-2.836-.102-3.951h3.594l.178 1.723h.076c.506-.811 1.746-2 3.822-2C17.1 6.216 19 7.911 19 11.558V19h-4v-6.861c0-1.594-.607-2.81-2-2.81-1.062 0-1.594.86-1.873 1.569-.102.254-.127.608-.127.963V19H7v-8.556z"/></symbol><symbol id="icon-mail" viewBox="0 0 32 32"><path d="M26.666 0H5.334C2.4 0 0 2.4 0 5.333v21.333C0 29.6 2.4 32 5.334 32h21.332C29.602 32 32 29.6 32 26.666V5.333C32 2.399 29.602 0 26.666 0zM8 8h16c.286 0 .563.061.817.177L16 18.463 7.183 8.176c.254-.116.531-.177.817-.177zM6 22V10c0-.042.002-.084.004-.125l5.864 6.842-5.8 5.8A1.983 1.983 0 015.999 22zm18 2H8c-.177 0-.35-.024-.517-.069l5.691-5.691L16 21.537l2.826-3.297 5.691 5.691c-.167.045-.34.069-.517.069zm2-2c0 .177-.024.35-.069.517l-5.8-5.8 5.864-6.842c.003.041.004.083.004.125v12z"/></symbol><symbol id="icon-instagram" viewBox="0 0 32 32"><path d="M16 2.881c4.275 0 4.781.019 6.462.094 1.563.069 2.406.331 2.969.55a4.952 4.952 0 011.837 1.194 5.015 5.015 0 011.2 1.838c.219.563.481 1.412.55 2.969.075 1.688.094 2.194.094 6.463s-.019 4.781-.094 6.463c-.069 1.563-.331 2.406-.55 2.969a4.94 4.94 0 01-1.194 1.837 5.02 5.02 0 01-1.837 1.2c-.563.219-1.413.481-2.969.55-1.688.075-2.194.094-6.463.094s-4.781-.019-6.463-.094c-1.563-.069-2.406-.331-2.969-.55a4.952 4.952 0 01-1.838-1.194 5.02 5.02 0 01-1.2-1.837c-.219-.563-.481-1.413-.55-2.969-.075-1.688-.094-2.194-.094-6.463s.019-4.781.094-6.463c.069-1.563.331-2.406.55-2.969a4.964 4.964 0 011.194-1.838 5.015 5.015 0 011.838-1.2c.563-.219 1.412-.481 2.969-.55 1.681-.075 2.188-.094 6.463-.094zM16 0c-4.344 0-4.887.019-6.594.094-1.7.075-2.869.35-3.881.744-1.056.412-1.95.956-2.837 1.85a7.833 7.833 0 00-1.85 2.831C.444 6.538.169 7.7.094 9.4.019 11.113 0 11.656 0 16s.019 4.887.094 6.594c.075 1.7.35 2.869.744 3.881.413 1.056.956 1.95 1.85 2.837a7.82 7.82 0 002.831 1.844c1.019.394 2.181.669 3.881.744 1.706.075 2.25.094 6.594.094s4.888-.019 6.594-.094c1.7-.075 2.869-.35 3.881-.744 1.05-.406 1.944-.956 2.831-1.844s1.438-1.781 1.844-2.831c.394-1.019.669-2.181.744-3.881.075-1.706.094-2.25.094-6.594s-.019-4.887-.094-6.594c-.075-1.7-.35-2.869-.744-3.881a7.506 7.506 0 00-1.831-2.844A7.82 7.82 0 0026.482.843C25.463.449 24.301.174 22.601.099c-1.712-.081-2.256-.1-6.6-.1z"/><path d="M16 7.781c-4.537 0-8.219 3.681-8.219 8.219s3.681 8.219 8.219 8.219 8.219-3.681 8.219-8.219A8.221 8.221 0 0016 7.781zm0 13.55a5.331 5.331 0 110-10.663 5.331 5.331 0 010 10.663zM26.462 7.456a1.919 1.919 0 11-3.838 0 1.919 1.919 0 013.838 0z"/></symbol><symbol id="icon-github" viewBox="0 0 32 32"><path d="M16 .395c-8.836 0-16 7.163-16 16 0 7.069 4.585 13.067 10.942 15.182.8.148 1.094-.347 1.094-.77 0-.381-.015-1.642-.022-2.979-4.452.968-5.391-1.888-5.391-1.888-.728-1.849-1.776-2.341-1.776-2.341-1.452-.993.11-.973.11-.973 1.606.113 2.452 1.649 2.452 1.649 1.427 2.446 3.743 1.739 4.656 1.33.143-1.034.558-1.74 1.016-2.14-3.554-.404-7.29-1.777-7.29-7.907 0-1.747.625-3.174 1.649-4.295-.166-.403-.714-2.03.155-4.234 0 0 1.344-.43 4.401 1.64a15.353 15.353 0 014.005-.539c1.359.006 2.729.184 4.008.539 3.054-2.07 4.395-1.64 4.395-1.64.871 2.204.323 3.831.157 4.234 1.026 1.12 1.647 2.548 1.647 4.295 0 6.145-3.743 7.498-7.306 7.895.574.497 1.085 1.47 1.085 2.963 0 2.141-.019 3.864-.019 4.391 0 .426.288.925 1.099.768C27.421 29.457 32 23.462 32 16.395c0-8.837-7.164-16-16-16z"/></symbol><symbol id="icon-bootstrap" viewBox="0 0 32 32"><path fill="var(--color1, #563d7c)" d="M26.667 0H5.334A5.347 5.347 0 00.001 5.333v21.333c0 2.933 2.4 5.333 5.333 5.333h21.333c2.933 0 5.333-2.4 5.333-5.333V5.333C32 2.4 29.6 0 26.667 0zm-2.916 22.473a4.153 4.153 0 01-1.231 1.645c-.56.453-1.269.827-2.143 1.093-.872.271-1.909.407-3.111.407H8.69V6.951h9.069c1.677 0 3.021.377 4.027 1.147 1.013.773 1.517 1.925 1.517 3.48 0 .94-.229 1.747-.691 2.413-.459.663-1.12 1.181-1.973 1.541v.061c1.139.24 2.02.78 2.6 1.62s.877 1.901.877 3.183c0 .717-.139 1.4-.4 2.037l.033.036zm-3.702-4.6c-.547-.5-1.315-.744-2.307-.744h-5.763v5.824h5.779c.987 0 1.76-.256 2.307-.773.547-.513.827-1.245.827-2.187-.009-.92-.28-1.632-.827-2.12h-.023zm-.8-3.764c.528-.448.787-1.089.787-1.925 0-.939-.233-1.605-.707-1.987-.469-.38-1.147-.577-2.037-.577h-5.333v5.151h5.333c.777 0 1.44-.227 1.952-.661z"/></symbol><symbol id="icon-microsoft" viewBox="0 0 32 32"><path fill="var(--color2, #666)" d="M15.2 32H0V16.8h15.2V32zM32 32H16.8V16.8H32V32zM15.2 15.2H0V0h15.2v15.2zm16.8 0H16.8V0H32v15.2z"/></symbol><symbol id="icon-javascript" viewBox="0 0 32 32"><path fill="var(--color3, #f7df1e)" d="M0 0h32v32H0V0zm29.379 24.368c-.233-1.46-1.184-2.687-4.004-3.831-.981-.46-2.072-.78-2.396-1.52-.121-.44-.14-.68-.061-.94.2-.861 1.22-1.12 2.02-.88.52.16 1 .56 1.301 1.2 1.379-.901 1.379-.901 2.34-1.5-.36-.56-.539-.801-.781-1.04-.84-.94-1.959-1.42-3.779-1.379l-.94.119c-.901.22-1.76.7-2.28 1.34-1.52 1.721-1.081 4.721.759 5.961 1.82 1.36 4.481 1.659 4.821 2.94.32 1.56-1.16 2.06-2.621 1.88-1.081-.24-1.68-.781-2.34-1.781l-2.44 1.401c.28.64.6.919 1.08 1.479 2.32 2.341 8.12 2.221 9.161-1.339.039-.12.32-.94.099-2.2l.061.089zm-11.978-9.66h-2.997c0 2.584-.012 5.152-.012 7.74 0 1.643.084 3.151-.184 3.615-.44.919-1.573.801-2.088.64-.528-.261-.796-.621-1.107-1.14-.084-.14-.147-.261-.169-.261l-2.433 1.5c.407.84 1 1.563 1.765 2.023 1.14.68 2.672.9 4.276.54 1.044-.301 1.944-.921 2.415-1.881.68-1.24.536-2.76.529-4.461.016-2.739 0-5.479 0-8.239l.005-.075z"/></symbol><symbol id="icon-sass" viewBox="0 0 32 32"><path fill="var(--color4, #c69)" d="M16 0c8.836 0 16 7.164 16 16s-7.164 16-16 16S0 24.836 0 16 7.164 0 16 0zm-3.18 21.331c.233.86.208 1.664-.032 2.389l-.087.24c-.032.081-.069.16-.104.235a4.492 4.492 0 01-.74 1.08c-.931 1.012-2.229 1.396-2.787 1.073-.6-.349-.301-1.78.779-2.92 1.161-1.224 2.827-2.012 2.827-2.012v-.004l.144-.081zM26.035 6.849c-.723-2.844-5.436-3.779-9.896-2.193-2.652.943-5.525 2.424-7.591 4.356-2.457 2.295-2.848 4.295-2.687 5.131.569 2.948 4.609 4.876 6.271 6.307v.008c-.489.24-4.075 2.039-4.915 3.9-.9 1.96.14 3.361.82 3.54 2.1.581 4.26-.48 5.42-2.199 1.12-1.681 1.021-3.841.539-4.901.661-.18 1.44-.26 2.44-.139 2.801.32 3.361 2.08 3.24 2.8-.12.719-.697 1.139-.899 1.259-.2.121-.26.16-.241.241.02.12.121.12.28.1.22-.04 1.461-.6 1.521-1.961.06-1.72-1.581-3.639-4.5-3.6-1.2.021-1.961.121-2.5.341a.479.479 0 00-.14-.14c-1.8-1.94-5.14-3.3-5-5.88.04-.94.38-3.419 6.4-6.419 4.94-2.461 8.881-1.78 9.561-.28.977 2.139-2.101 6.12-7.241 6.699-1.96.22-2.98-.539-3.241-.82-.279-.3-.319-.32-.419-.259-.16.08-.06.34 0 .5.16.4.78 1.1 1.861 1.46.939.3 3.24.479 6-.6 3.099-1.199 5.519-4.54 4.819-7.34l.097.089z"/></symbol><symbol id="icon-github" viewBox="0 0 32 32"><path fill="var(--color5, #000)" d="M16 .396c-8.84 0-16 7.164-16 16 0 7.071 4.584 13.067 10.94 15.18.8.151 1.093-.344 1.093-.769 0-.38-.013-1.387-.02-2.72-4.451.965-5.389-2.147-5.389-2.147-.728-1.847-1.78-2.34-1.78-2.34-1.449-.992.112-.972.112-.972 1.607.112 2.451 1.648 2.451 1.648 1.427 2.447 3.745 1.74 4.66 1.331.144-1.035.556-1.74 1.013-2.14-3.553-.4-7.288-1.776-7.288-7.907 0-1.747.62-3.173 1.647-4.293-.18-.404-.72-2.031.14-4.235 0 0 1.34-.429 4.4 1.64 1.28-.356 2.64-.532 4-.54 1.36.008 2.72.184 4 .54 3.04-2.069 4.38-1.64 4.38-1.64.86 2.204.32 3.831.16 4.235 1.02 1.12 1.64 2.547 1.64 4.293 0 6.147-3.74 7.5-7.3 7.893.56.48 1.08 1.461 1.08 2.96 0 2.141-.02 3.861-.02 4.381 0 .42.28.92 1.1.76C27.42 29.455 32 23.455 32 16.395c0-8.836-7.164-16-16-16z"/></symbol><symbol id="icon-jquery" viewBox="0 0 32 32"><path fill="var(--color5, #0769ad)" d="M2.045 7.832c-2.831 4.067-2.48 9.356-.316 13.675.049.105.104.205.157.305.031.069.065.133.103.199.017.037.041.076.063.111.035.069.072.136.108.203l.209.353c.039.065.076.129.12.195.073.125.16.249.236.375.035.052.067.104.105.156.148.232.284.425.428.612l-.015-.02c.104.143.208.281.32.42.036.051.076.101.113.152l.295.359c.036.041.072.089.111.132.131.157.269.311.408.465 0 .003.004.005.007.009.172.217.358.409.56.582l.006.005c.107.109.213.219.327.325l.135.129c.148.139.296.277.452.411.003 0 .004.003.007.004l.076.067c.136.119.273.237.413.347l.167.14c.113.091.231.177.347.267l.181.139c.124.093.256.185.383.276.047.033.093.067.141.097l.039.031.375.247.16.107c.196.125.391.244.584.361.056.028.112.059.164.091.144.083.293.167.439.244.08.045.163.084.245.125.1.056.204.111.311.167a.387.387 0 01.077.032l-.002-.001c.044.02.085.041.128.063.16.08.327.156.5.232.032.013.067.027.101.045.192.084.384.164.583.243.045.013.093.036.14.053.18.068.365.137.548.203l.067.024c.204.069.405.136.612.2.048.013.097.031.148.044.212.064.417.14.631.181 13.68 2.493 17.656-8.225 17.656-8.225-3.34 4.349-9.267 5.496-14.88 4.22-.208-.048-.416-.115-.625-.176a14.64 14.64 0 01-.882-.28l.126.039-.083-.032c-.181-.061-.356-.129-.533-.197a1.738 1.738 0 00-.132-.05l-.015-.004c-.196-.079-.387-.16-.576-.244-.041-.013-.076-.032-.117-.048a16.54 16.54 0 01-.665-.308l.184.081c-.049-.021-.093-.044-.141-.069a10.022 10.022 0 01-.373-.189 4.225 4.225 0 01-.276-.142l.027.014c-.151-.08-.301-.167-.452-.249-.045-.032-.097-.059-.149-.088a17.928 17.928 0 01-.668-.409l.084.05a2.925 2.925 0 01-.165-.111l.008.006a7.671 7.671 0 01-.44-.291l.024.017c-.047-.031-.089-.064-.137-.097-.17-.118-.298-.211-.424-.306l.032.023c-.056-.045-.116-.088-.176-.133-.117-.092-.236-.18-.353-.277l-.157-.125c-.174-.14-.319-.263-.461-.388l.016.013A.356.356 0 008.771 23l-.001-.001-.463-.421-.133-.125c-.109-.111-.221-.217-.333-.327l-.129-.133a12.33 12.33 0 01-.404-.421l-.008-.009-.02-.021a23.788 23.788 0 01-.417-.472c-.036-.041-.069-.085-.107-.129l-.301-.369a20.463 20.463 0 01-.4-.522l-.054-.075C2.888 15.724 1.761 9.858 4.253 5.046z"/><path fill="var(--color5, #0769ad)" d="M10.828 4.407c-2.052 2.945-1.936 6.884-.339 9.999.296.584.596 1.078.928 1.547l-.025-.038c.307.44.645.96 1.056 1.315a8.9 8.9 0 00.459.479l.12.12c.152.147.308.291.467.433l.02.017c.16.141.34.29.524.435l.028.021c.045.031.084.067.128.097.187.144.375.283.569.42l.02.012c.083.06.171.115.264.173.037.024.08.056.12.08.141.091.28.176.423.263.023.009.043.021.064.031.12.073.251.144.376.209.044.027.087.047.132.072.089.044.177.091.263.136l.043.019c.18.088.364.171.544.253a14.006 14.006 0 00.57.234c.067.023.129.049.192.069.136.051.279.097.413.144l.187.06c.195.06.392.139.597.172 10.56 1.751 13.005-6.383 13.005-6.383-2.201 3.168-6.461 4.677-11.001 3.499a9.85 9.85 0 01-.673-.195l.076.022c-.064-.017-.12-.037-.181-.056-.139-.048-.281-.095-.416-.145l-.192-.072c-.149-.06-.301-.116-.447-.18-.045-.02-.087-.033-.121-.053-.187-.084-.375-.167-.556-.256l-.275-.143-.159-.08c-.123-.064-.236-.131-.353-.2a.952.952 0 01-.086-.047l.003.002c-.141-.088-.288-.173-.423-.264-.045-.025-.087-.056-.129-.083l-.277-.181c-.192-.133-.38-.277-.569-.416-.043-.039-.084-.071-.125-.105-1.996-1.569-3.571-3.715-4.317-6.144-.787-2.525-.613-5.357.745-7.656z"/><path fill="var(--color5, #0769ad)" d="M18.213 1.845c-1.211 1.776-1.327 3.981-.493 5.94.885 2.08 2.696 3.713 4.805 4.487.087.033.171.061.26.093l.117.036c.123.039.247.084.373.112 5.835 1.125 7.413-2.996 7.839-3.601-1.389 1.995-3.719 2.473-6.576 1.779a6.317 6.317 0 01-.732-.228l.044.015a8.2 8.2 0 01-.873-.361l.05.022a8.696 8.696 0 01-1.462-.896l.021.016c-2.56-1.939-4.145-5.64-2.476-8.655z"/></symbol><symbol id="icon-node-dot-js" viewBox="0 0 32 32"><path fill="var(--color6, #393)" d="M15.247.204L2.754 7.444a1.51 1.51 0 00-.751 1.311V23.24c0 .539.287 1.04.752 1.309l12.493 7.247c.467.271 1.04.271 1.507 0l12.488-7.244c.467-.273.752-.771.753-1.309V8.755a1.52 1.52 0 00-.755-1.312L16.756.203a1.498 1.498 0 00-1.507 0z"/></symbol><symbol id="icon-npm" viewBox="0 0 32 32"><path fill="var(--color7, #cb3837)" d="M0 9.779v10.667h8.888v1.776H16v-1.776h16V9.779H0zm8.888 8.885H7.112v-5.333h-1.78v5.333H1.78v-7.108h7.108v7.108zm5.333 0v1.781h-3.553v-8.889h7.112v7.109l-3.559-.001zm16.002 0H28.45v-5.333h-1.781v5.333h-1.78v-5.333h-1.773v5.333h-3.561v-7.108h10.669v7.108z"/><path fill="var(--color7, #cb3837)" d="M14.22 13.333H16v3.556h-1.78v-3.556z"/></symbol><symbol id="icon-html5" viewBox="0 0 32 32"><path fill="var(--color8, #e34f26)" d="M2 0h28l-2.547 28.751L15.969 32 4.55 28.749 1.999 0zm9.375 13l-.309-3.624 13.412.004.307-3.496L7.217 5.88l.931 10.68h12.168l-.435 4.568-3.88 1.072-3.94-1.08-.251-2.813H8.331l.44 5.561L16 25.801l7.172-1.924.992-10.876H11.375z"/></symbol><symbol id="icon-mongodb" viewBox="0 0 32 32"><path fill="var(--color9, #47a248)" d="M22.907 12.691c-1.684-7.413-5.656-9.849-6.083-10.781-.469-.657-.977-1.909-.977-1.909l-.007.065v.017h-.001a.48.48 0 00-.005.052v.02h-.003c0 .013-.003.024-.003.035v.035h-.004c-.001.011-.001.024-.004.033v.028h-.003c0 .009 0 .02-.003.028v.027h-.003a.322.322 0 01-.003.043v.003l-.012.067v.011h-.003c-.001.005-.004.011-.004.016v.023h-.004v.029h-.007v.024h-.007v.028h-.005V.61h-.005v.023h-.008v.019h-.005v.024h-.005v.019h-.007v.017h-.004v.02h-.005l-.001.005V.75h-.004l-.001.008v.008h-.003l-.003.013-.013.028V.81l-.007.009V.83h-.005v.011h-.007v.011h-.004v.013h-.008v.019h-.005v.005h-.005V.9h-.005v.015h-.005v.011h-.008v.015h-.005v.011h-.007v.011h-.004v.013h-.007v.011h-.005v.008h-.005v.011h-.008v.012h-.005v.008h-.007v.011h-.005v.015h-.007v.005h-.004v.011h-.008v.005h-.005v.013h-.005v.005h-.005v.011h-.007v.008h-.004l-.003.005v.005h-.003c-.001.003-.003.003-.003.005v.001h-.001a.02.02 0 01-.005.009v.004h-.001c-.007.008-.011.016-.016.024v.001c-.003.003-.009.008-.012.013v.003h-.001l-.004.004v.004h-.003l-.004.004v.001h-.001l-.004.005v.005h-.004l-.003.003v.003h-.003c0 .003-.003.003-.003.004v.004h-.005l-.003.004v.008h-.004v.005h-.005v.008h-.005v.011h-.007v-.011h-.007v.005h-.005v.008h-.007v.011h-.007v.005h-.005v.008h-.005v.005h-.005v.011h-.008V1.3h-.005v.008h-.007v.005h-.005v.007h-.007v.013h-.003v.005h-.008v.007h-.005v.003h-.005v.005h-.007v.013h-.005v.005h-.007v.005h-.005v.008h-.007v.005h-.007v.005H15.3v.005h-.005v.013h-.005v.007h-.008v.005h-.005v.005h-.007v.008h-.005v.005h-.007v.009h-.005v.005h-.008v.008h-.003v.005h-.005v.005h-.007v.005h-.005v.008h-.007v.005h-.004l-.001.003v.003h-.003l-.005.005-.005.004v.008h-.005v.007h-.005v.005h-.005v.005h-.004l-.004.004v.004h-.003l-.003.003v.004h-.003c-.007.008-.009.013-.019.021l-.016.013a.493.493 0 00-.052.043c-.011.007-.021.016-.029.023v.001h-.001a7.387 7.387 0 01-.065.052v.001l-.099.083v-.001h-.003c-.076.063-.156.133-.248.212v.001h-.001c-.225.197-.493.451-.793.757l-.025.025c-1.813 1.876-4.671 5.785-4.972 12.103-.027.523-.021 1.031.008 1.525v.012c.145 2.489.927 4.615 1.904 6.341v.001a16.56 16.56 0 001.235 1.873v.001c1.469 1.94 2.969 3.089 3.352 3.368.588 1.364.533 3.705.533 3.705l.859.287s-.175-2.268.071-3.363a2.08 2.08 0 01.465-.883c.141-.1.56-.401 1.063-.86.024-.025.037-.048.059-.072 2.028-1.891 5.816-6.547 4.517-14.132z"/></symbol><symbol id="icon-gulp" viewBox="0 0 32 32"><path fill="var(--color10, #da4648)" d="M20.208 25.909l.848-1.445s-1.925.788-5.147.788c-3.224 0-5.12-.757-5.12-.757l.948 1.577.336 4.972c0 .537 1.752.957 3.915.957 2.164 0 3.917-.419 3.917-.957l.305-5.113v-.021zm.82-9.394c-1.025.061-1.537 1.204-2.052 2.407-.191.44-.84 2.316-1.264 2.084-.424-.231.551-1.772.825-2.689-.316.232-1.473 1.132-1.772.287-.477.419-1.505.64-1.389-.439-.255.46-.828 1.097-1.519.819-.897-.34.527-3.215.88-3.076.355.161-.071.8-.181 1.059-.248.559-.531 1.277-.34 1.417.32.259 1.205-.937 1.225-.959.165-.22.639-1.639 1.017-1.476.38.179-.948 2.055-.453 2.435.101.08.511-.04.759-.319.16-.16.104-.56.639-1.837.539-1.279 1.019-2.875 1.385-2.755s.065.937-.068 1.257c-.619 1.437-1.691 3.792-1.187 3.613.499-.18.759-.18 1.257-.759s.46-1.536.799-1.516c.32.019.28.339.2.557.32-.36 1.536-1.157 1.817-.379.339.917-1.739 2.256-1.219 2.176.5-.06 1.317-.579 1.677-1.057l.959-8.667s-.979.8-7.148.8-7.045-.779-7.045-.779l.817 7.907c.44-1.237 1.477-3.752 3.096-3.653.739.04 1.737 1.479.877 1.519-.36.02-.4-.719-.819-.819-.319-.061-.739.18-1.017.46-.539.539-1.739 2.675-1.579 3.735.2 1.357 1.876-.461 2.156-1 .199-.377.339-1.517.757-1.397.44.12-.039 1.299-.36 2.316-.36 1.159-.539 2.375-.976 2.235-.44-.139.279-1.636.237-1.896-.417.399-1.177 1.36-2.175.879l.499 4.932s1.359 1.057 5.431 1.057 5.491-1.057 5.491-1.057l.639-5.711c-.519.52-2.156 1.417-2.256.4-.079-.819 1.777-1.997 1.299-2.019l.08-.092zm2.1-15.623l-3.545 3.733-.648 2.535c2.508.16 4.252.515 4.252.925 0 .559-3.219 1.009-7.188 1.009s-7.187-.457-7.187-1.017c0-.559 3.219-1.019 7.188-1.019.564 0 1.125 0 1.685.021l.748-3.035L22.2.051c.091-.12.373-.02.632.2.259.199.399.459.319.579v.04l-.023.021zm-5.112 7.727s-.697 0-.813-.107a.187.187 0 01-.048-.12c0-.077.052-.121.12-.147l.059.1c-.028.008-.039.02-.044.031 0 .055.419.092.74.088.319-.004.708-.031.711-.085 0-.016-.031-.031-.081-.044l.06-.096c.084.027.156.077.156.161 0 .147-.188.171-.307.188-.143.02-.549.031-.549.031h-.003z"/></symbol><symbol id="icon-adobephotoshop" viewBox="0 0 32 32"><path fill="var(--color11, #00c8ff)" d="M0 .4v31.2h32V.4H0zm1.333 1.333h29.333v28.533H1.333V1.733zm6.4 5.974c0-.089.187-.155.299-.155a73.618 73.618 0 013.437-.067c3.696 0 5.133 2.027 5.133 4.621 0 3.387-2.456 4.84-5.469 4.84-.507 0-.68-.023-1.033-.023v5.123c0 .111-.044.155-.153.155H7.888c-.111 0-.153-.04-.153-.151V7.706zm2.367 7.082c.307.021.549.021 1.08.021 1.56 0 3.027-.549 3.027-2.661 0-1.693-1.048-2.552-2.829-2.552-.528 0-1.033.021-1.276.044v5.152zm11.476-1.584c-1.056 0-1.408.528-1.408.968 0 .484.24.813 1.649 1.54 2.091 1.013 2.749 1.98 2.749 3.409 0 2.133-1.627 3.28-3.827 3.28-1.168 0-2.16-.244-2.733-.573-.087-.044-.107-.109-.107-.22v-1.956c0-.133.064-.177.152-.112a4.91 4.91 0 002.683.792c1.056 0 1.496-.44 1.496-1.035 0-.484-.307-.903-1.649-1.607-1.893-.907-2.685-1.827-2.685-3.369 0-1.716 1.341-3.147 3.673-3.147 1.147 0 1.952.176 2.392.373.109.067.133.176.133.264v1.827c0 .111-.067.177-.2.133-.592-.352-1.467-.573-2.324-.573z"/></symbol><symbol id="icon-css3" viewBox="0 0 32 32"><path fill="var(--color12, #1572b6)" d="M2 0h28l-2.547 28.751L15.969 32l-11.42-3.251L2 0zm22.787 5.884L7.214 5.88l.284 3.496 13.5.003-.34 3.621h-8.853l.32 3.431h8.243l-.488 4.697L16 22.2l-3.941-1.08-.251-2.813h-3.48l.387 5.14 7.287 2.271 7.164-2.04 1.623-17.792z"/></symbol><symbol id="icon-mysql" viewBox="0 0 32 32"><path fill="var(--color13, #4479a1)" d="M21.873 7.568c-.153 0-.257.019-.365.044v.017h.019c.072.139.195.24.285.364.072.143.133.285.205.427l.019-.02c.125-.088.187-.229.187-.444-.053-.063-.061-.125-.107-.187-.053-.089-.168-.133-.24-.204zM7.693 25.16H6.457a67.797 67.797 0 00-.36-5.88h-.011l-1.88 5.88h-.94l-1.867-5.88h-.013a97.463 97.463 0 00-.26 5.88H-.001c.073-2.621.256-5.08.547-7.373h1.533l1.78 5.419h.011l1.796-5.419h1.46c.323 2.687.512 5.147.571 7.373zm5.356-5.44c-.504 2.727-1.168 4.711-1.989 5.947-.643.955-1.347 1.431-2.111 1.431-.204 0-.453-.061-.755-.184v-.659c.147.023.32.035.515.035.357 0 .644-.1.863-.296.263-.24.393-.509.393-.807 0-.207-.103-.627-.307-1.259L8.306 19.72h1.213l.969 3.147c.219.715.311 1.213.273 1.497.533-1.419.904-2.969 1.113-4.644h1.173zm16.434 5.44h-3.507v-7.373h1.18v6.467h2.327zm-4.427.18l-1.355-.667c.12-.101.236-.211.34-.333.577-.675.864-1.677.864-3.004 0-2.44-.957-3.661-2.873-3.661-.939 0-1.672.309-2.2.929-.573.677-.861 1.675-.861 2.993 0 1.296.253 2.248.765 2.853.467.547 1.169.82 2.111.82.352 0 .675-.044.967-.131l1.767 1.029.48-.829zm-4.389-1.656c-.3-.48-.449-1.253-.449-2.315 0-1.857.565-2.787 1.693-2.787.591 0 1.027.223 1.303.667.299.483.448 1.248.448 2.297 0 1.872-.565 2.811-1.693 2.811-.593 0-1.027-.223-1.304-.667zm-2.211-.567c0 .627-.229 1.141-.688 1.541s-1.071.6-1.845.6c-.724 0-1.419-.229-2.097-.687l.316-.635c.584.293 1.111.437 1.587.437.443 0 .791-.097 1.044-.293.251-.196.4-.472.4-.82 0-.44-.307-.813-.864-1.127-.517-.284-1.551-.876-1.551-.876-.563-.409-.843-.848-.843-1.569 0-.6.209-1.08.627-1.447.42-.371.96-.553 1.627-.553.683 0 1.307.181 1.867.547l-.284.635a3.628 3.628 0 00-1.419-.307c-.377 0-.669.091-.872.275a.912.912 0 00-.331.699c0 .437.312.813.888 1.133a138.1 138.1 0 011.583.893c.577.407.864.84.864 1.557z"/><path fill="var(--color13, #4479a1)" d="M30.965 15.315c-.713-.019-1.267.053-1.729.251-.133.053-.347.053-.365.223.073.071.084.187.147.285.107.179.291.417.461.543.187.147.373.288.569.413.347.213.74.34 1.08.555.193.125.391.284.587.417.097.067.16.187.285.229v-.027c-.061-.08-.08-.196-.14-.285-.089-.089-.179-.169-.267-.257a4.299 4.299 0 00-.927-.9c-.285-.195-.909-.467-1.027-.793l-.017-.019c.195-.017.427-.088.613-.141.303-.08.58-.063.893-.141.141-.036.284-.08.427-.125v-.08c-.16-.16-.28-.377-.445-.527a11.796 11.796 0 00-1.472-1.097c-.28-.179-.635-.293-.929-.445-.107-.053-.285-.08-.347-.169-.16-.195-.253-.453-.367-.685a23.176 23.176 0 01-.729-1.551c-.16-.349-.257-.697-.453-1.017-.92-1.516-1.916-2.435-3.448-3.333-.329-.187-.724-.267-1.141-.365-.223-.011-.445-.027-.667-.036-.147-.063-.288-.232-.413-.313-.507-.32-1.819-1.013-2.192-.096-.24.579.356 1.149.563 1.443.153.204.347.437.453.667.063.155.08.313.143.475.141.392.276.829.463 1.196.097.187.204.383.329.551.072.097.195.143.223.303-.125.181-.133.445-.205.667-.32 1.009-.195 2.257.259 3 .143.221.483.712.937.524.4-.16.312-.667.427-1.113.027-.107.009-.177.064-.249v.02c.125.251.251.489.365.74.275.437.755.891 1.156 1.193.213.16.383.437.649.536v-.027h-.02c-.057-.077-.133-.115-.205-.177-.16-.16-.34-.356-.467-.533a11.68 11.68 0 01-.996-1.624c-.147-.28-.269-.581-.387-.857-.053-.107-.053-.267-.143-.32-.133.195-.329.364-.427.604-.169.384-.187.856-.251 1.347-.036.009-.019 0-.036.019-.285-.069-.383-.365-.489-.613-.267-.633-.311-1.651-.08-2.38.063-.187.329-.776.223-.955-.056-.169-.232-.267-.329-.404a3.3 3.3 0 01-.32-.569c-.213-.499-.32-1.051-.552-1.549-.107-.231-.293-.472-.445-.684-.169-.24-.356-.409-.491-.693-.044-.097-.107-.259-.036-.365.019-.072.056-.1.125-.12.117-.096.447.029.563.083.329.133.607.259.883.445.125.088.26.257.42.301h.187c.285.063.607.019.873.097.473.152.9.373 1.283.613a7.933 7.933 0 012.78 3.048c.107.205.153.393.251.607.187.44.417.884.607 1.309.187.42.367.848.635 1.196.133.187.669.284.909.381.177.08.453.153.613.251.307.187.605.4.893.605.147.101.591.324.617.504z"/></symbol><symbol id="icon-visualstudiocode" viewBox="0 0 32 32"><path fill="var(--color14, #007acc)" d="M32 3.333v25.333l-8 3.333-24-7.333v-.748l24 2.06V-.001zM1.333 17.481l4.513-4.148-4.513-4.148 1.891-1.103 4.58 3.451L16 4l4 1.941v14.784l-4 1.941-8.196-7.533-4.579 3.452zm8.859-4.148L16 17.71V8.955z"/></symbol><symbol id="icon-mozillafirefox" viewBox="0 0 32 32"><path fill="var(--color11, #ff9400)" d="M31.213 14.64c-.04-.28-.093-.453-.093-.453s-.107.133-.293.373c-.053-.68-.173-1.36-.36-2.013a13.682 13.682 0 00-.933-2.387c-.24-.507-.52-1-.853-1.453-.173-.267-.32-.467-.347-.507-.573-.933-1.213-1.493-1.973-2.56a7.853 7.853 0 01-.973-2.653 9.9 9.9 0 00-.48 1.733c-.76-.773-1.44-1.333-1.84-1.707-2-1.867-1.76-2.827-1.76-2.827s-3.733 4.16-2.12 8.493a8.334 8.334 0 002.787 3.707c1.56 1.28 3.24 2.293 4.12 4.893a8.21 8.21 0 00-3.107-3.293c.4.947.6 1.947.587 2.973 0 3.893-3.16 7.053-7.067 7.053-.52 0-1.053-.053-1.56-.173-.613-.12-1.2-.32-1.747-.6a6.95 6.95 0 01-2.107-1.933v-.013c.067.027.107.04.12.04.293.107.587.187.893.24 1.2.253 2.44.107 3.547-.413 1.12-.627 1.8-1.08 2.347-.907s.96-.347.587-.893a2.928 2.928 0 00-2.827-1.093c-1.12.16-2.147.947-3.6.187-.107-.053-.187-.107-.28-.16-.093-.067.32.08.213.013a6.353 6.353 0 01-.92-.547c-.013-.013.227.067.2.053a3.516 3.516 0 01-.96-.973 1.77 1.77 0 01-.067-1.533c.147-.253.347-.44.6-.56.187.093.307.16.307.16s-.093-.16-.133-.24c.013-.013.027 0 .053-.013.16.067.52.253.72.373.133.067.24.173.333.293 0 0 .067-.027.013-.173a.814.814 0 00-.347-.413h.027c.147.08.28.16.413.267.12-.293.187-.587.173-.893a1.19 1.19 0 00-.067-.493c-.053-.107.027-.147.12-.04a.837.837 0 00-.08-.24s.053-.08.08-.093c.067-.067.133-.133.213-.173a8.868 8.868 0 011.453-.747c.413-.173.747-.32.813-.36.107-.067.2-.133.293-.213.347-.293.573-.693.653-1.133.013-.067.013-.12.013-.173v-.107c-.053-.227-.44-.387-2.453-.587a1.749 1.749 0 01-1.44-1.347v.013c-.027.067-.053.147-.08.227.027-.08.053-.147.08-.227v-.013c.387-1 1.08-1.867 1.973-2.453.053-.04-.2.013-.147-.027.16-.08.333-.16.52-.227.093-.027-.387-.213-.813-.173-.253.013-.507.08-.747.173.107-.08.4-.187.333-.187a4.425 4.425 0 00-1.533.573c0-.053.013-.093.027-.133-.373.16-.707.413-.947.733v-.173c-.173.133-.32.28-.467.44h-.013a6.192 6.192 0 00-3.48-.293l-.013-.013h.013a2.563 2.563 0 01-.613-.693l-.013.013-.027-.027c-.08-.107-.147-.24-.227-.387-.067-.093-.12-.213-.187-.333 0 0 0-.013-.013-.013s-.04.12-.053.08a4.214 4.214 0 01-.28-1.667h-.013a1.768 1.768 0 00-.707.933c-.067.133-.107.2-.147.28v-.04l.04-.2c-.013.013-.013.027-.027.04a1.737 1.737 0 00-.24.36c-.067.12-.12.253-.16.387v-.067c0-.053.013-.133 0-.107l-.013.04a9.334 9.334 0 00-.8 3c-.027.187-.027.36-.027.533v.027a7.099 7.099 0 00-.813 1.08 15.386 15.386 0 00-1.707 4.2c.253-.56.56-1.107.92-1.613a14.743 14.743 0 00-1.04 5.453c.12-.547.267-1.08.44-1.613-.107 2.2.32 4.4 1.24 6.413a14.872 14.872 0 005.907 6.68c1.053.72 2.213 1.28 3.427 1.653.16.053.333.12.493.173-.053-.027-.093-.053-.147-.067 1.44.427 2.947.653 4.453.653 5.347 0 7.107-2.04 7.28-2.24.253-.24.48-.52.627-.853.107-.04.2-.08.307-.133l.067-.027c.08-.04.12-.053.12-.053a11.379 11.379 0 002.267-1.413 5.46 5.46 0 002.093-3.08c.2-.453.2-.947.04-1.413.08-.133.147-.253.16-.28a12.583 12.583 0 001.893-6.12v-.187c0-.453-.04-.92-.12-1.373z"/></symbol><symbol id="icon-microsoftedge" viewBox="0 0 32 32"><path fill="var(--color14, #0078d7)" d="M30.877 19H10.428c0 .771.115 1.471.349 2.1.251.62.575 1.175.991 1.66.413.485.9.9 1.469 1.251.551.349 1.151.64 1.791.864.635.231 1.3.4 1.973.511a13.575 13.575 0 004.496-.046l-.082.012a17.22 17.22 0 002.201-.56c.72-.236 1.415-.516 2.111-.836.7-.32 1.409-.669 2.14-1.06v6.78c-.816.4-1.616.736-2.416 1.025-.8.28-1.6.525-2.413.72-.816.2-1.64.351-2.487.44-.782.089-1.69.14-2.609.14-1.2 0-2.36-.14-3.475-.415a13.62 13.62 0 01-3.213-1.226l.073.036a13.2 13.2 0 01-2.701-1.899l.011.009a11.96 11.96 0 01-3.438-5.446l-.022-.084a12.215 12.215 0 01-.475-3.41v-.074.004c0-1.315.18-2.565.54-3.76A11.996 11.996 0 019.252 9.8l.024-.019a13.038 13.038 0 013.203-1.869l.088-.031a6.944 6.944 0 00-1.534 2.319l-.017.047a9.946 9.946 0 00-.71 2.691l-.005.049H21.69c0-1.151-.115-2.151-.349-3.011s-.611-1.575-1.135-2.14c-.52-.569-1.191-1-2.016-1.28-.824-.285-1.82-.429-2.984-.429-1.376 0-2.751.2-4.125.615-1.375.4-2.68.975-3.92 1.7-1.24.735-2.38 1.6-3.42 2.589a16.18 16.18 0 00-2.625 3.24c.166-1.446.471-2.761.905-4.015l-.04.131a16.551 16.551 0 011.625-3.452 15.607 15.607 0 012.317-2.866l.003-.003c.884-.86 1.864-1.6 2.949-2.2A15.062 15.062 0 0112.36.455a17.361 17.361 0 013.979-.453h.001c.82 0 1.635.075 2.449.22a17.54 17.54 0 012.387.611A14.2 14.2 0 0125.3 3.042a14.215 14.215 0 013.018 3.216l.031.049a14.555 14.555 0 011.88 4.084c.431 1.485.651 3.031.651 4.636v3.975z"/></symbol><symbol id="icon-googlechrome" viewBox="0 0 32 32"><path fill="var(--color15, #4285f4)" d="M21.619 11.587l8.953-2.239C31.474 11.291 32 13.565 32 15.963 32 24.76 24.759 32 15.957 32c-.403 0-.807-.015-1.209-.045l6.54-11.129a6.72 6.72 0 001.175-1.695c.44-.909.697-1.978.697-3.106a7.234 7.234 0 00-.774-3.266l.019.042a6.885 6.885 0 00-.797-1.226l.01.013zm-4.32 11.433l-2.828 8.909C6.318 31.126 0 24.186 0 15.969c0-3.18.945-6.289 2.717-8.931l6.445 11.169c.24.719 1.492 3.441 4.089 4.436 1.331.509 2.721.641 4.047.376zm-1.335-12.86c-2.675.025-5.171 2.059-5.708 4.683-.07.344-.11.739-.11 1.143 0 1.654.673 3.151 1.76 4.233 1.619 1.581 4.187 2.104 6.312 1.236 1.877-.768 3.293-2.569 3.588-4.575.363-2.475-1.051-5.109-3.327-6.172a5.797 5.797 0 00-2.48-.548h-.037.002zm-6.569 3.123L3.012 6.618C5.964 2.589 10.678.003 15.996.001c6.08 0 11.659 3.456 14.365 8.9H16.744c-2.415-.167-4.384.693-5.687 1.937a7.159 7.159 0 00-1.645 2.398l-.017.047z"/></symbol><symbol id="icon-gmail" viewBox="0 0 32 32"><path fill="var(--color4, #d14836)" d="M32 6v20c0 1.133-.867 2-2 2h-2V9.849l-12 8.617L4 9.849V28H2c-1.135 0-2-.867-2-2V6c0-.567.216-1.067.575-1.424A1.98 1.98 0 012 4h.667L16 13.667 29.333 4H30c.567 0 1.067.216 1.425.576.36.357.575.857.575 1.424z"/></symbol><symbol id="icon-adobeillustrator" viewBox="0 0 32 32"><path fill="var(--color1, #ff7c00)" d="M0 .4v31.2h32V.4zm1.333 1.333h29.333v28.533H1.333zM11.1 18.067l-1.056 3.997c-.023.111-.067.136-.197.136H7.89c-.133 0-.153-.044-.133-.197l3.787-13.26c.067-.24.109-.451.131-1.111 0-.088.044-.133.111-.133h2.795c.088 0 .133.024.155.133l4.247 14.392c.023.111 0 .176-.111.176h-2.2c-.111 0-.176-.027-.197-.115l-1.1-4.02zm3.717-2.167c-.373-1.475-1.253-4.704-1.584-6.267h-.023c-.285 1.56-.989 4.2-1.54 6.267zm6-7.411c0-.857.593-1.364 1.364-1.364.813 0 1.364.549 1.364 1.364 0 .88-.573 1.364-1.387 1.364-.8 0-1.347-.484-1.341-1.364zm.15 3.032c0-.107.044-.147.155-.147h2.093c.117 0 .16.044.16.155v10.527c0 .111-.021.155-.153.155h-2.067c-.133 0-.177-.067-.177-.173z"/></symbol><symbol id="icon-adobexd" viewBox="0 0 32 32"><path fill="var(--color1, #ff2bc2)" d="M26.333.4H5.666A5.662 5.662 0 00-.001 6.067v19.867a5.662 5.662 0 005.667 5.667h20.667A5.662 5.662 0 0032 25.934V6.067A5.662 5.662 0 0026.333.4zm4.32 25.013v.023a4.83 4.83 0 01-4.826 4.831H6.173a4.848 4.848 0 01-4.84-4.84V6.574a4.848 4.848 0 014.84-4.84h19.64a4.84 4.84 0 014.84 4.84zM12.653 15l3.733 7.173c.067.107.027.213-.08.213h-2.32c-.147 0-.213-.04-.28-.173-.853-1.76-1.72-3.52-2.613-5.413h-.027c-.8 1.787-1.68 3.667-2.533 5.427-.067.107-.133.147-.24.147h-2.2c-.133 0-.147-.107-.08-.187l3.653-6.96-3.533-7.04c-.08-.107 0-.187.08-.187h2.293c.133 0 .187.027.24.147.84 1.76 1.693 3.573 2.493 5.347h.027a212.71 212.71 0 012.453-5.333c.067-.107.107-.173.24-.173h2.147c.107 0 .147.08.08.187zm4.387 2.173c0-3.107 2.067-5.533 5.347-5.533.28 0 .427 0 .693.027V8.134c0-.08.067-.133.133-.133h2.107c.107 0 .133.04.133.107v12.24c0 .36 0 .813.067 1.307 0 .08-.027.107-.107.147a7.945 7.945 0 01-3.413.773c-2.893.013-4.96-1.773-4.96-5.4zm6.04-3.413a2.016 2.016 0 00-.773-.133c-1.68 0-2.853 1.293-2.853 3.44 0 2.453 1.2 3.44 2.707 3.44.32 0 .667-.04.92-.147z"/></symbol><symbol id="icon-dribbble" viewBox="0 0 32 32"><path d="M16 32C7.175 32 0 24.825 0 16S7.175 0 16 0s16 7.175 16 16-7.175 16-16 16zm13.494-13.812c-.469-.15-4.231-1.269-8.512-.581 1.788 4.912 2.512 8.912 2.656 9.744 3.063-2.075 5.25-5.356 5.856-9.163zM21.337 28.6c-.206-1.2-.994-5.375-2.913-10.363-.031.012-.063.019-.087.031-7.713 2.688-10.481 8.031-10.725 8.531a13.612 13.612 0 008.387 2.887c1.894 0 3.7-.387 5.338-1.087zM5.844 25.156c.313-.531 4.063-6.738 11.106-9.019.175-.056.356-.113.538-.162a50.041 50.041 0 00-1.106-2.319C9.563 15.7 2.938 15.612 2.338 15.606c-.006.137-.006.275-.006.419 0 3.506 1.331 6.712 3.512 9.131zM2.625 13.219c.612.006 6.244.031 12.637-1.662a86.017 86.017 0 00-5.069-7.906C6.368 5.457 3.505 8.982 2.624 13.22zM12.8 2.731a73.225 73.225 0 015.1 8c4.863-1.819 6.919-4.588 7.163-4.938A13.598 13.598 0 0016 2.349a14.22 14.22 0 00-3.2.381zm13.781 4.65c-.288.388-2.581 3.325-7.631 5.388.319.65.625 1.313.906 1.981.1.238.2.469.294.706 4.55-.569 9.069.344 9.519.438a13.628 13.628 0 00-3.087-8.512z"/></symbol><symbol id="icon-paint-format" viewBox="0 0 32 32"><path d="M32 18V6h-6V4c0-1.1-.9-2-2-2H2C.9 2 0 2.9 0 4v6c0 1.1.9 2 2 2h22c1.1 0 2-.9 2-2V8h4v8H12v4h-1a1 1 0 00-1 1v10a1 1 0 001 1h4a1 1 0 001-1V21a1 1 0 00-1-1h-1v-2h18zM24 6H2V4h22v2z"/></symbol><symbol id="icon-embed2" viewBox="0 0 40 32"><path d="M26 23l3 3 10-10L29 6l-3 3 7 7zM14 9l-3-3L1 16l10 10 3-3-7-7zm7.916-4.296l2.171.592-6 22.001-2.171-.592 6-22.001z"/></symbol><symbol id="icon-trophy" viewBox="0 0 32 32"><path d="M26 6V2H6v4H0v4a6 6 0 007.801 5.725A10.006 10.006 0 0014 19.8V26h-2a4 4 0 00-4 4h16a4 4 0 00-4-4h-2v-6.2a10.006 10.006 0 006.199-4.075A6 6 0 0032 10V6h-6zM6 13.625A3.629 3.629 0 012.375 10V8H6v2c0 1.256.232 2.457.655 3.565-.213.039-.431.06-.655.06zM29.625 10a3.629 3.629 0 01-4.28 3.565A9.968 9.968 0 0026 10V8h3.625v2z"/></symbol><symbol id="icon-earth" viewBox="0 0 64 64"><path d="M32 0C14.327 0 0 14.327 0 32s14.327 32 32 32 32-14.327 32-32S49.673 0 32 0zm0 60c-3.935 0-7.68-.813-11.077-2.278l14.572-16.393C35.82 40.963 36 40.49 36 40v-6a2 2 0 00-2-2c-7.062 0-14.513-7.341-14.586-7.414A2 2 0 0018 24h-8a2 2 0 00-2 2v12a2 2 0 001.106 1.789L16 43.236v11.743C8.747 49.919 4 41.514 4 32c0-4.295.968-8.363 2.696-12H14a2 2 0 001.414-.586l8-8A2 2 0 0024 10V5.162A27.985 27.985 0 0132 4c4.4 0 8.563 1.016 12.268 2.825A11.92 11.92 0 0040 16c0 3.205 1.248 6.219 3.515 8.485a11.967 11.967 0 009.072 3.501c.863 3.238 2.422 11.666-.525 23.271a1.954 1.954 0 00-.053.327C46.926 56.777 39.84 60 32 60z"/></symbol><symbol id="icon-clipboard" viewBox="0 0 32 32"><path d="M29 4h-9a4 4 0 00-8 0H3a1 1 0 00-1 1v26a1 1 0 001 1h26a1 1 0 001-1V5a1 1 0 00-1-1zM16 2a2 2 0 11.001 3.999A2 2 0 0116 2zm12 28H4V6h4v3a1 1 0 001 1h14a1 1 0 001-1V6h4v24z"/><path d="M14 26.828l-6.414-7.414 1.828-1.828L14 21.172l8.586-7.586 1.829 1.828z"/></symbol><symbol id="icon-accessibility" viewBox="0 0 32 32"><path d="M13 3a3 3 0 116 0 3 3 0 01-6 0z"/><path d="M20 10l10.3-4.443-.743-1.857L17 8h-2L2.443 3.7 1.7 5.557 12 10v8L7.898 31.268l1.87.709L15.572 19h.857l5.804 12.977 1.87-.709L20.001 18z"/></symbol><symbol id="icon-circle-up" viewBox="0 0 32 32"><path d="M0 16c0 8.837 7.163 16 16 16s16-7.163 16-16S24.837 0 16 0 0 7.163 0 16zm29 0c0 7.18-5.82 13-13 13S3 23.18 3 16 8.82 3 16 3s13 5.82 13 13z"/><path d="M22.086 20.914l2.829-2.829-8.914-8.914-8.914 8.914 2.828 2.828 6.086-6.086z"/></symbol></defs></svg>